<svg width="152" height="106" viewBox="0 0 152 106" fill="none" xmlns="http://www.w3.org/2000/svg">
<g filter="url(#filter0_d)">
<path fill-rule="evenodd" clip-rule="evenodd" d="M3 12.9778C3 6.36266 7.97509 1.00002 14.1122 1.00002L137.457 1C143.595 1 148.57 6.36264 148.57 12.9778V85.2476L3 84.9482V12.9778ZM9.32911 17.7459C9.32911 11.9958 13.8716 7.33441 19.475 7.33441H132.095C137.698 7.33441 142.241 11.9958 142.241 17.7459V78.9132L9.32911 78.6529V17.7459Z" fill="white"/>
<path d="M14.1122 101C7.97509 101 3 95.649 3 89.0483H148.57C148.57 95.649 143.595 101 137.457 101H14.1122Z" fill="white"/>
<path d="M22.6203 24.4347C22.6203 22.6869 24.0371 21.2701 25.7848 21.2701H72.6203C74.368 21.2701 75.7848 22.6869 75.7848 24.4347V53.5782C75.7848 55.326 74.368 56.7428 72.6203 56.7428H25.7848C24.0371 56.7428 22.6203 55.326 22.6203 53.5782V24.4347Z" fill="white"/>
<path d="M115 56.367C112.909 56.367 111.203 58.0831 111.203 60.1835C111.203 62.284 112.909 64 115 64C117.091 64 118.797 62.284 118.797 60.1835C118.797 58.0924 117.091 56.367 115 56.367ZM103.797 22C101.706 22 100 23.716 100 25.8165C100 27.9169 101.706 29.633 103.797 29.633C105.887 29.633 107.594 27.9169 107.594 25.8165C107.594 23.716 105.887 22 103.797 22ZM103.797 33.4588C101.706 33.4588 100 35.1748 100 37.2753C100 39.3758 101.706 41.0918 103.797 41.0918C105.887 41.0918 107.594 39.3758 107.594 37.2753C107.594 35.1748 105.887 33.4588 103.797 33.4588ZM103.797 44.9176C101.706 44.9176 100 46.6336 100 48.7341C100 50.8346 101.706 52.5506 103.797 52.5506C105.887 52.5506 107.594 50.8346 107.594 48.7341C107.594 46.6336 105.887 44.9176 103.797 44.9176ZM126.203 29.6423C128.294 29.6423 130 27.9263 130 25.8259C130 23.7254 128.294 22 126.203 22C124.112 22 122.406 23.716 122.406 25.8165C122.406 27.9169 124.112 29.6423 126.203 29.6423ZM115 44.9176C112.909 44.9176 111.203 46.6336 111.203 48.7341C111.203 50.8346 112.909 52.5506 115 52.5506C117.091 52.5506 118.797 50.8346 118.797 48.7341C118.797 46.6336 117.091 44.9176 115 44.9176ZM126.203 44.9176C124.112 44.9176 122.406 46.6336 122.406 48.7341C122.406 50.8346 124.112 52.5506 126.203 52.5506C128.294 52.5506 130 50.8346 130 48.7341C130 46.6336 128.294 44.9176 126.203 44.9176ZM126.203 33.4588C124.112 33.4588 122.406 35.1748 122.406 37.2753C122.406 39.3758 124.112 41.0918 126.203 41.0918C128.294 41.0918 130 39.3758 130 37.2753C130 35.1748 128.294 33.4588 126.203 33.4588ZM115 33.4588C112.909 33.4588 111.203 35.1748 111.203 37.2753C111.203 39.3758 112.909 41.0918 115 41.0918C117.091 41.0918 118.797 39.3758 118.797 37.2753C118.797 35.1748 117.091 33.4588 115 33.4588ZM115 22C112.909 22 111.203 23.716 111.203 25.8165C111.203 27.9169 112.909 29.633 115 29.633C117.091 29.633 118.797 27.9169 118.797 25.8165C118.797 23.716 117.091 22 115 22Z" fill="white"/>
</g>
<defs>
<filter id="filter0_d" x="0" y="0" width="151.57" height="106" filterUnits="userSpaceOnUse" color-interpolation-filters="sRGB">
<feFlood flood-opacity="0" result="BackgroundImageFix"/>
<feColorMatrix in="SourceAlpha" type="matrix" values="0 0 0 0 0 0 0 0 0 0 0 0 0 0 0 0 0 0 127 0"/>
<feOffset dy="2"/>
<feGaussianBlur stdDeviation="1.5"/>
<feColorMatrix type="matrix" values="0 0 0 0 0 0 0 0 0 0 0 0 0 0 0 0 0 0 0.25 0"/>
<feBlend mode="normal" in2="BackgroundImageFix" result="effect1_dropShadow"/>
<feBlend mode="normal" in="SourceGraphic" in2="effect1_dropShadow" result="shape"/>
</filter>
</defs>
</svg>
