<svg width="77" height="106" viewBox="0 0 77 106" fill="none" xmlns="http://www.w3.org/2000/svg">
<g filter="url(#filter0_d)">
<path fill-rule="evenodd" clip-rule="evenodd" d="M15.8099 1C8.7352 1 3 6.66728 3 13.6582V88.3418C3 95.3327 8.7352 101 15.8099 101H60.6446C67.7193 101 73.4545 95.3327 73.4545 88.3418V13.6582C73.4545 6.66728 67.7193 1 60.6446 1H15.8099ZM19.0124 7.32911C13.7064 7.32911 9.40496 11.5796 9.40496 16.8228V85.1772C9.40496 90.4204 13.7064 94.6709 19.0124 94.6709H57.4421C62.7482 94.6709 67.0496 90.4204 67.0496 85.1772V16.8228C67.0496 11.5796 62.7482 7.32911 57.4421 7.32911H19.0124Z" fill="white"/>
<path d="M36.3058 16.1899C36.3058 15.1412 37.1661 14.2911 38.2273 14.2911C39.2885 14.2911 40.1488 15.1412 40.1488 16.1899V23.7848C40.1488 24.8335 39.2885 25.6835 38.2273 25.6835C37.1661 25.6835 36.3058 24.8335 36.3058 23.7848V16.1899Z" fill="white"/>
<circle cx="38" cy="55" r="14" fill="white"/>
</g>
<defs>
<filter id="filter0_d" x="0" y="0" width="76.4545" height="106" filterUnits="userSpaceOnUse" color-interpolation-filters="sRGB">
<feFlood flood-opacity="0" result="BackgroundImageFix"/>
<feColorMatrix in="SourceAlpha" type="matrix" values="0 0 0 0 0 0 0 0 0 0 0 0 0 0 0 0 0 0 127 0"/>
<feOffset dy="2"/>
<feGaussianBlur stdDeviation="1.5"/>
<feColorMatrix type="matrix" values="0 0 0 0 0 0 0 0 0 0 0 0 0 0 0 0 0 0 0.25 0"/>
<feBlend mode="normal" in2="BackgroundImageFix" result="effect1_dropShadow"/>
<feBlend mode="normal" in="SourceGraphic" in2="effect1_dropShadow" result="shape"/>
</filter>
</defs>
</svg>
