<svg width="345" height="145" viewBox="0 0 345 145" fill="none" xmlns="http://www.w3.org/2000/svg">
<path d="M0.5 38.6591C0.5 17.8605 17.3606 1 38.1591 1H306.841C327.639 1 344.5 17.8605 344.5 38.6591C344.5 59.4576 327.639 76.3182 306.841 76.3182H231.442C218.931 76.3182 207.379 83.0218 201.171 93.8844C188.338 116.339 156.089 116.704 142.752 94.5443L142.147 93.5386C135.716 82.8529 124.156 76.3182 111.684 76.3182H38.1591C17.3606 76.3182 0.5 59.4576 0.5 38.6591Z" stroke="white"/>
<line x1="0.5" y1="-0.5" x2="14.3691" y2="-0.5" transform="matrix(0.752577 0.658505 -0.540758 0.841178 161 83)" stroke="white" stroke-linecap="round"/>
<line x1="0.5" y1="-0.5" x2="14.3691" y2="-0.5" transform="matrix(-0.752577 0.658505 0.540758 0.841178 183.38 83)" stroke="white" stroke-linecap="round"/>
</svg>
