<svg width="98" height="98" viewBox="0 0 98 98" fill="none" xmlns="http://www.w3.org/2000/svg">
<g filter="url(#filter0_d)">
<path fill-rule="evenodd" clip-rule="evenodd" d="M4 15C4 6.71573 10.7157 0 19 0H79C87.2843 0 94 6.71573 94 15V75C94 83.2843 87.2843 90 79 90H19C10.7157 90 4 83.2843 4 75V15ZM11.1523 17.1997C11.1523 11.6769 15.6295 7.19971 21.1523 7.19971H76.7523C82.2752 7.19971 86.7523 11.6769 86.7523 17.1997V72.7997C86.7523 78.3226 82.2752 82.7997 76.7523 82.7997H21.1523C15.6295 82.7997 11.1523 78.3225 11.1523 72.7997V17.1997ZM60.6529 52.5257C60.6529 50.4622 58.9801 48.7895 56.9167 48.7895H24.7245C22.661 48.7895 20.9883 50.4622 20.9883 52.5257C20.9883 54.5891 22.661 56.2619 24.7245 56.2619H56.9167C58.9801 56.2619 60.6529 54.5891 60.6529 52.5257ZM70.569 37.5808C70.569 35.5174 68.8962 33.8446 66.8328 33.8446H24.7245C22.661 33.8446 20.9883 35.5174 20.9883 37.5808C20.9883 39.6443 22.661 41.317 24.7245 41.317H66.8328C68.8963 41.317 70.569 39.6443 70.569 37.5808ZM75.5271 22.6359C75.5271 20.5725 73.8543 18.8997 71.7909 18.8997H24.7245C22.661 18.8997 20.9883 20.5725 20.9883 22.6359C20.9883 24.6994 22.661 26.3722 24.7245 26.3722H71.7909C73.8543 26.3722 75.5271 24.6994 75.5271 22.6359ZM65.5547 67.373C65.5547 65.3148 63.8862 63.6463 61.828 63.6463H24.715C22.6568 63.6463 20.9883 65.3148 20.9883 67.373C20.9883 69.4312 22.6568 71.0997 24.715 71.0997H61.828C63.8862 71.0997 65.5547 69.4312 65.5547 67.373Z" fill="white"/>
</g>
<defs>
<filter id="filter0_d" x="0" y="0" width="98" height="98" filterUnits="userSpaceOnUse" color-interpolation-filters="sRGB">
<feFlood flood-opacity="0" result="BackgroundImageFix"/>
<feColorMatrix in="SourceAlpha" type="matrix" values="0 0 0 0 0 0 0 0 0 0 0 0 0 0 0 0 0 0 127 0"/>
<feOffset dy="4"/>
<feGaussianBlur stdDeviation="2"/>
<feColorMatrix type="matrix" values="0 0 0 0 0 0 0 0 0 0 0 0 0 0 0 0 0 0 0.25 0"/>
<feBlend mode="normal" in2="BackgroundImageFix" result="effect1_dropShadow"/>
<feBlend mode="normal" in="SourceGraphic" in2="effect1_dropShadow" result="shape"/>
</filter>
</defs>
</svg>
