<svg width="212" height="192" viewBox="0 0 212 192" fill="none" xmlns="http://www.w3.org/2000/svg">
<g filter="url(#filter0_d)">
<path d="M106 170.931C138.283 170.931 162.43 140.066 162.43 104.723C162.43 69.3805 138.283 38.5163 106 38.5163C73.7172 38.5163 49.57 69.3805 49.57 104.723C49.57 140.066 73.7172 170.931 106 170.931Z" stroke="white" stroke-width="13.86"/>
<path d="M16.3188 80.0899H30.1016C35.9263 42.2643 67.7301 13.3483 106.091 13.3483C144.451 13.3483 176.255 42.2643 182.08 80.0899H195.862C189.915 35.352 152.535 0 106.091 0C59.6456 0 22.2665 35.352 16.3188 80.0899Z" fill="#EF3B39"/>
<path d="M33.5178 63.4045C18.8724 63.4046 7 77.2246 7 94.2725C7 111.32 18.8724 125.141 33.5179 125.141L33.5178 63.4045Z" fill="#EF3B39"/>
<path d="M60.0357 94.3071C60.0357 94.2956 60.0357 94.2841 60.0357 94.2725C60.0357 94.261 60.0357 94.2495 60.0357 94.238V94.3071Z" fill="#EF3B39"/>
<path d="M178.482 63.4045C193.128 63.4046 205 77.2246 205 94.2725C205 111.32 193.128 125.141 178.482 125.141L178.482 63.4045Z" fill="#EF3B39"/>
<path d="M151.964 94.3071C151.964 94.2956 151.964 94.2841 151.964 94.2725C151.964 94.261 151.964 94.2495 151.964 94.238V94.3071Z" fill="#EF3B39"/>
<path d="M116.241 136.82C116.241 136.82 140.642 135.607 152.205 130.98C165.668 125.593 179.397 116.798 179.397 116.798V125.141C179.397 125.141 165.362 133.954 153.082 138.489C140.565 143.112 116.241 145.163 116.241 145.163V136.82Z" fill="#EF3B39"/>
<path d="M123.069 140.992C123.069 146.06 116.191 150.169 107.707 150.169C99.2227 150.169 92.3448 146.06 92.3448 140.992C92.3448 135.923 99.2227 131.815 107.707 131.815C116.191 131.815 123.069 135.923 123.069 140.992Z" fill="#EF3B39"/>
</g>
<defs>
<filter id="filter0_d" x="0.347199" y="0" width="211.306" height="191.166" filterUnits="userSpaceOnUse" color-interpolation-filters="sRGB">
<feFlood flood-opacity="0" result="BackgroundImageFix"/>
<feColorMatrix in="SourceAlpha" type="matrix" values="0 0 0 0 0 0 0 0 0 0 0 0 0 0 0 0 0 0 127 0"/>
<feOffset dy="6.6528"/>
<feGaussianBlur stdDeviation="3.3264"/>
<feColorMatrix type="matrix" values="0 0 0 0 0 0 0 0 0 0 0 0 0 0 0 0 0 0 0.25 0"/>
<feBlend mode="normal" in2="BackgroundImageFix" result="effect1_dropShadow"/>
<feBlend mode="normal" in="SourceGraphic" in2="effect1_dropShadow" result="shape"/>
</filter>
</defs>
</svg>
