<svg width="622" height="544" viewBox="0 0 622 544" fill="none" xmlns="http://www.w3.org/2000/svg">
<g filter="url(#filter0_d)">
<path d="M3.14433 279.52C26.0937 279.52 49.0431 279.52 72.2812 279.52C72.2812 286.296 72.2812 292.931 72.2812 299.849C57.5589 299.849 42.981 299.849 28.1144 299.849C28.1144 305.072 28.1144 310.013 28.1144 315.236C42.8367 315.236 57.4146 315.236 72.1369 315.236C72.1369 334.436 72.1369 353.353 72.1369 372.693C49.0431 372.693 26.0937 372.693 3 372.693C3 365.917 3 359.141 3 352.365C17.7223 352.365 32.5888 352.365 47.4554 352.365C47.4554 346.718 47.4554 341.353 47.4554 335.706C46.1564 335.706 45.1461 335.706 43.9914 335.706C31.5785 335.706 19.1656 335.706 6.75273 335.706C5.45371 335.706 4.29902 335.565 3 335.424C3.14434 316.789 3.14433 298.155 3.14433 279.52Z" fill="white"/>
<path d="M285.409 138.801C231.715 101.187 178.164 63.7146 124.185 25.9587C124.612 102.748 125.04 178.97 125.467 255.475C86.8698 255.475 48.7 255.475 10.5303 255.475V255.333C42.7182 251.501 75.0486 247.526 107.521 243.552C107.521 242.275 107.521 241.139 107.521 240.146C106.952 165.06 106.524 90.1154 105.955 15.0293C105.955 12.6164 105.955 10.0615 106.24 7.64848C107.236 1.40314 113.503 -1.71954 119.2 1.11926C121.194 2.11283 123.046 3.53223 124.897 4.80969C177.452 41.572 229.864 78.3344 282.276 115.097C284.27 116.516 285.552 116.516 287.688 115.097C340.243 77.9086 392.797 40.7204 445.352 3.67417C447.061 2.53865 448.77 1.2612 450.764 0.551498C454.61 -0.867898 458.598 0.551496 460.876 3.67417C463.013 6.93878 462.87 11.197 460.307 14.1777C459.025 15.5971 457.458 16.7326 456.034 17.8681C399.349 58.179 342.522 98.3479 285.409 138.801Z" fill="white"/>
<path d="M609.963 397.304C595.731 398.862 581.356 400.42 567.124 401.978C552.607 403.536 538.09 405.235 523.573 406.935C517.595 407.643 511.76 408.209 505.782 408.776C503.22 409.059 501.512 409.767 500.232 412.458C488.419 438.802 470.059 460.047 447.572 477.751C418.253 500.837 385.091 516.275 349.653 527.605C337.555 531.429 325.031 534.403 312.648 537.661C311.225 538.086 309.517 538.086 308.236 537.803C267.247 528.738 228.393 514.433 192.812 491.914C168.616 476.618 147.553 457.922 131.897 433.703C127.2 426.48 123.5 418.69 119.515 411.184C118.661 409.484 117.664 408.634 115.814 408.351C104.855 407.218 94.0387 405.943 83.0797 404.81C70.1282 403.394 57.0344 401.978 44.0829 400.42C34.4049 399.287 24.7269 398.295 15.0488 396.879C16.0451 396.879 16.899 396.879 17.8953 396.879C55.3265 396.879 92.6154 396.879 130.047 396.879C132.182 396.879 133.035 397.445 133.889 399.57C144.848 427.188 163.493 448.716 186.976 466.42C215.868 488.231 248.46 502.678 283.045 513.017C291.157 515.425 299.412 517.408 307.667 519.532C309.09 519.957 310.798 519.957 312.079 519.674C350.222 510.751 386.515 497.296 419.534 475.91C442.875 460.755 463.085 442.484 477.175 418.265C480.733 412.317 483.58 405.802 486.284 399.428C487.28 397.304 488.276 396.737 490.411 396.737C528.127 396.737 565.701 396.737 603.416 396.737C605.551 396.737 607.544 396.737 609.679 396.737C609.821 397.021 609.821 397.162 609.963 397.304Z" fill="#EF3B39"/>
<path d="M515.248 242.987C549.713 247.103 583.604 251.218 617.494 255.191C617.494 255.333 617.494 255.333 617.494 255.475C577.572 255.475 537.507 255.475 497.154 255.475C497.585 179.129 498.015 102.783 498.446 26.1528C497.297 26.8623 496.436 27.4299 495.574 27.9975C462.545 50.9865 429.516 73.8336 396.487 96.8226C377.1 110.304 357.857 123.785 338.614 137.266C337.322 138.118 335.455 138.685 333.875 138.685C324.828 138.827 315.781 138.685 305.729 138.685C307.165 137.692 307.883 136.982 308.601 136.415C331.003 120.663 353.406 104.769 375.952 89.1596C417.597 60.2105 459.099 31.5452 500.6 2.73803C503.903 0.467516 507.35 -0.951557 511.371 0.751331C515.679 2.73803 516.971 6.56953 516.971 10.8268C516.971 17.7802 516.684 24.8756 516.684 31.829C516.253 101.08 515.822 170.331 515.392 239.581C515.248 240.717 515.248 241.71 515.248 242.987Z" fill="#EF3B39"/>
<path d="M410.277 343.188C405.953 343.188 402.061 343.188 397.304 343.188C402.926 353.07 408.403 362.67 414.169 372.693C412.727 372.693 411.862 372.693 410.853 372.693C403.502 372.693 396.007 372.693 388.656 372.693C386.926 372.693 386.061 372.129 385.341 370.717C381.449 363.094 377.413 355.753 373.81 348.129C372.656 345.588 371.215 344.459 368.476 344.882C367.467 345.024 366.458 344.882 365.017 344.882C365.017 354.2 365.017 363.235 365.017 372.411C356.657 372.411 348.729 372.411 340.369 372.411C340.369 341.494 340.369 310.719 340.369 279.52C363.576 279.52 386.926 279.52 410.277 279.52C410.277 300.837 410.277 321.872 410.277 343.188ZM385.485 322.719C385.485 315.519 385.485 308.601 385.485 301.684C378.566 301.684 371.792 301.684 365.017 301.684C365.017 308.884 365.017 315.801 365.017 322.719C371.936 322.719 378.566 322.719 385.485 322.719Z" fill="white"/>
<path d="M279.333 348.904C286.485 348.904 293.345 348.904 300.35 348.904C300.35 325.823 300.35 302.743 300.35 279.52C308.816 279.52 316.989 279.52 325.308 279.52C325.308 310.531 325.308 341.541 325.308 372.693C301.81 372.693 278.311 372.693 254.521 372.693C254.521 341.824 254.521 310.814 254.521 279.662C262.694 279.662 270.868 279.662 279.333 279.662C279.333 302.601 279.333 325.682 279.333 348.904Z" fill="white"/>
<path d="M215.083 313.13C215.083 309.727 215.083 306.607 215.083 303.345C208.24 303.345 201.54 303.345 194.698 303.345C194.698 318.378 194.698 333.552 194.698 348.868C201.398 348.868 208.098 348.868 214.94 348.868C214.94 345.606 214.94 342.486 214.94 339.083C223.209 339.083 231.192 339.083 239.317 339.083C239.317 350.145 239.317 361.348 239.317 372.693C216.366 372.693 193.415 372.693 170.178 372.693C170.178 341.777 170.178 310.72 170.178 279.52C193.272 279.52 216.223 279.52 239.46 279.52C239.46 290.724 239.46 301.927 239.46 313.13C231.334 313.13 223.351 313.13 215.083 313.13Z" fill="white"/>
<path d="M88.8486 372.693C88.8486 341.636 88.8486 310.72 88.8486 279.52C110.436 279.52 131.882 279.52 153.611 279.52C153.611 286.611 153.611 293.843 153.611 301.36C140.261 301.36 126.911 301.36 113.277 301.36C113.277 306.04 113.277 310.294 113.277 314.974C119.81 314.974 126.343 314.974 133.018 314.974C133.018 322.49 133.018 329.581 133.018 337.097C126.485 337.097 119.952 337.097 113.277 337.097C113.277 341.777 113.277 346.032 113.277 350.712C126.627 350.712 139.977 350.712 153.469 350.712C153.469 358.228 153.469 365.319 153.469 372.693C132.166 372.693 110.578 372.693 88.8486 372.693Z" fill="white"/>
<path d="M331.333 253.973C311.706 253.973 292.221 253.973 272.594 253.973C272.594 227.377 272.594 201.062 272.594 174.325C292.221 174.325 311.706 174.325 331.333 174.325C331.333 200.921 331.333 227.377 331.333 253.973ZM310.71 194.729C304.737 194.729 299.19 194.729 293.501 194.729C293.501 207.816 293.501 220.763 293.501 233.709C299.333 233.709 305.021 233.709 310.71 233.709C310.71 220.622 310.71 207.816 310.71 194.729Z" fill="#EF3B39"/>
<path d="M406.499 230.995C394.105 230.995 381.991 230.995 369.597 230.995C369.597 238.748 369.597 246.219 369.597 253.973C362.774 253.973 356.229 253.973 349.406 253.973C349.406 227.47 349.406 200.968 349.406 174.325C368.483 174.325 387.421 174.325 406.638 174.325C406.499 193.074 406.499 211.823 406.499 230.995ZM386.029 211.823C386.029 206.043 386.029 200.263 386.029 194.624C380.459 194.624 375.167 194.624 369.597 194.624C369.597 200.404 369.597 206.043 369.597 211.823C375.167 211.823 380.598 211.823 386.029 211.823Z" fill="#EF3B39"/>
<path d="M577.582 313.311C582.633 302.566 587.395 292.245 592.158 281.782C592.879 280.227 593.745 279.52 595.477 279.52C603.125 279.661 610.774 279.52 619 279.52C614.815 287.579 610.918 295.214 606.878 302.99C601.394 313.453 596.054 323.915 590.714 334.519C590.137 335.509 589.993 336.923 589.993 338.054C589.993 348.516 589.993 358.979 589.993 369.441C589.993 370.431 589.993 371.421 589.993 372.693C581.767 372.693 573.541 372.693 565.171 372.693C565.171 371.562 565.171 370.573 565.171 369.583C565.171 359.403 565.171 349.223 565.171 339.043C565.171 337.205 564.594 335.085 563.728 333.388C555.213 316.563 546.41 299.88 537.751 283.055C537.174 282.065 536.741 281.075 536.164 279.803C537.03 279.661 537.751 279.52 538.473 279.52C545.256 279.52 552.183 279.661 558.965 279.52C561.13 279.52 562.14 280.227 563.006 282.206C567.336 291.821 571.809 301.435 576.283 310.908C576.572 311.615 577.005 312.322 577.582 313.311Z" fill="white"/>
<path d="M511.011 372.693C502.583 372.693 494.726 372.693 486.441 372.693C486.441 349.647 486.441 326.602 486.441 303.131C478.727 303.131 471.442 303.131 463.871 303.131C463.871 295.072 463.871 287.438 463.871 279.52C487.012 279.52 510.011 279.52 533.152 279.52C533.152 287.296 533.152 295.072 533.152 302.99C525.724 302.99 518.439 302.99 510.868 302.99C511.011 326.46 511.011 349.506 511.011 372.693Z" fill="white"/>
<path d="M243.567 253.973C236.162 253.973 229.054 253.973 221.798 253.973C221.798 234.131 221.798 214.43 221.798 194.448C214.987 194.448 208.471 194.448 201.807 194.448C201.807 187.693 201.807 181.079 201.807 174.325C222.243 174.325 242.826 174.325 263.558 174.325C263.558 180.798 263.558 187.412 263.558 194.307C257.042 194.307 250.526 194.307 243.715 194.307C243.567 214.43 243.567 234.131 243.567 253.973Z" fill="#EF3B39"/>
<path d="M427.723 279.52C435.851 279.52 443.836 279.52 451.821 279.52C451.821 310.672 451.821 341.541 451.821 372.693C443.694 372.693 435.851 372.693 427.723 372.693C427.723 341.683 427.723 310.672 427.723 279.52Z" fill="white"/>
<path d="M308.268 398.376C306.536 401.643 304.962 404.365 303.387 407.224C301.655 410.355 298.663 413.349 298.663 416.48C298.663 419.611 301.655 422.742 303.23 425.873C304.962 429.003 306.694 432.27 308.741 435.81C304.647 435.81 300.71 435.81 296.931 435.673C296.459 435.673 295.829 434.721 295.514 434.176C293.782 430.773 292.05 427.37 290.318 423.967C289.059 421.517 289.059 421.517 285.28 421.653C285.28 426.145 285.28 430.773 285.28 435.537C281.343 435.537 277.879 435.537 274.1 435.537C274.1 423.286 274.1 410.899 274.1 398.376C277.722 398.376 281.186 398.376 284.965 398.376C284.965 402.868 284.965 407.224 284.965 411.58C287.799 412.533 289.373 411.988 290.318 409.674C291.735 406.407 293.31 403.14 295.199 400.009C295.672 399.193 297.089 398.376 298.034 398.24C301.183 398.24 304.489 398.376 308.268 398.376Z" fill="#EF3B39"/>
<path d="M310.293 398.24C319.314 398.24 328.199 398.24 337.357 398.24C337.357 401.267 337.357 404.157 337.357 407.047C337.357 407.735 336.81 408.286 336.4 408.836C332.436 413.653 328.336 418.332 324.372 423.011C323.688 423.837 322.868 424.8 321.775 426.314C327.379 426.314 332.3 426.314 337.357 426.314C337.357 429.617 337.357 432.644 337.357 435.81C328.336 435.81 319.451 435.81 310.293 435.81C310.566 431.131 309.063 426.589 313.3 422.461C317.674 418.194 321.365 413.103 325.739 408.011C320.408 408.011 315.624 408.011 310.566 408.011C310.293 404.57 310.293 401.543 310.293 398.24Z" fill="#EF3B39"/>
</g>
<defs>
<filter id="filter0_d" x="0" y="0" width="622" height="544" filterUnits="userSpaceOnUse" color-interpolation-filters="sRGB">
<feFlood flood-opacity="0" result="BackgroundImageFix"/>
<feColorMatrix in="SourceAlpha" type="matrix" values="0 0 0 0 0 0 0 0 0 0 0 0 0 0 0 0 0 0 127 0"/>
<feOffset dy="3"/>
<feGaussianBlur stdDeviation="1.5"/>
<feColorMatrix type="matrix" values="0 0 0 0 0 0 0 0 0 0 0 0 0 0 0 0 0 0 0.4 0"/>
<feBlend mode="normal" in2="BackgroundImageFix" result="effect1_dropShadow"/>
<feBlend mode="normal" in="SourceGraphic" in2="effect1_dropShadow" result="shape"/>
</filter>
</defs>
</svg>
