<svg width="117" height="117" viewBox="0 0 117 117" fill="none" xmlns="http://www.w3.org/2000/svg">
<path fill-rule="evenodd" clip-rule="evenodd" d="M58.5073 0C90.8125 0 117 26.1904 117 58.4964C117 90.8023 90.8125 117 58.5073 117C26.202 117 0 90.812 0 58.5061C0 26.2001 26.1899 0.00970562 58.5073 0.00970562V0ZM23.6189 85.6822H35.806L33.7764 63.9539L33.6307 63.9782C31.6206 64.3521 29.6469 65.8597 29.0618 67.6635L23.6189 85.6822ZM44.2786 62.1622L46.063 72.8443C46.4125 74.937 44.8102 76.884 42.7054 77.1438C40.5836 77.1438 38.758 75.8765 38.406 73.7863L36.6653 63.4489L44.2786 62.1622ZM71.9275 62.0409L70.1456 72.7229C69.796 74.8156 71.3958 76.7627 73.5031 77.0224C75.6224 77.0224 77.4481 75.7551 77.8001 73.6624L79.5408 63.3251L71.9275 62.0384V62.0409ZM74.7752 77.9522V79.0302C74.7727 79.9237 74.4165 80.7799 73.7847 81.4118C73.1529 82.0436 72.2967 82.3997 71.4031 82.4023H46.3979C45.5044 82.3997 44.6482 82.0436 44.0164 81.4118C43.3845 80.7799 43.0285 79.9237 43.0259 79.0302V77.9547C45.0725 77.9935 46.5484 75.9858 47.0461 74.8884H69.2838C70.0946 77.003 71.6726 78.2873 74.7849 77.9522H74.7752ZM46.2207 61.8272L45.2108 61.9972L47.0292 72.8807C47.0789 73.1815 47.0976 73.4865 47.085 73.7911H69.2012C69.156 73.387 69.1667 72.9785 69.2328 72.5772L71.022 61.8758L70.7962 61.8393C67.7956 67.4668 63.8871 71.3634 58.5097 72.4704C53.13 71.3634 49.2214 67.4668 46.2207 61.8393V61.8272ZM41.931 78.1999C39.7461 77.9013 37.9326 76.4155 37.5466 74.1261L35.7817 63.5898L35.1748 63.6917L37.214 85.6822H79.7981L81.8495 63.7014L80.456 63.4587L78.7129 73.813C78.583 74.6105 78.2539 75.3624 77.7561 75.999C77.2583 76.6356 76.608 77.1362 75.8653 77.4546V79.0253C75.8653 80.2097 75.3954 81.3456 74.5589 82.184C73.7224 83.0223 72.5875 83.4946 71.4031 83.4972H46.3979C45.2153 83.4946 44.0819 83.0237 43.2456 82.1874C42.4094 81.3512 41.9385 80.2177 41.9359 79.035V78.212L41.931 78.1999ZM41.1638 40.2835C41.1638 42.9783 42.0985 43.5609 42.334 44.146C42.5962 44.8015 42.3825 45.3113 42.8657 46.0882C43.5066 47.1321 44.7811 47.3021 45.8129 46.4936C46.7985 45.7143 46.3372 44.6024 46.5023 43.3934L46.5193 36.353H70.4272L70.6287 45.6221C70.8084 46.5932 72.5976 47.8192 74.076 46.2071C74.6101 45.6245 74.3892 45.1049 74.6028 44.3184C74.8286 43.4929 75.8483 43.1045 75.8483 40.0116C75.8394 39.0643 75.6064 38.1325 75.1685 37.2925C74.4402 36.0786 74.6077 36.5642 74.4183 34.5831C74.235 32.6953 73.7006 30.8584 72.8427 29.1669C71.8717 27.1955 70.7841 26.0448 69.3323 24.5784C68.7379 24.0112 68.099 23.4924 67.4218 23.0271C66.9555 22.6989 66.469 22.4005 65.9651 22.1337C64.907 21.5712 63.7867 21.1345 62.6271 20.8324C61.5472 20.5689 60.4451 20.4063 59.3351 20.3469H57.3055C56.5702 20.3866 55.8393 20.4872 55.1206 20.6479C54.5365 20.78 53.9596 20.9421 53.3921 21.1335C50.9329 21.9565 48.0512 23.7918 46.4052 25.8384C44.718 27.9336 43.4605 29.8636 42.839 32.9857C42.7048 33.6222 42.6068 34.2657 42.5452 34.9133C42.3753 37.1857 42.3025 36.3554 41.7562 37.4551C41.6235 37.7085 41.5185 37.9755 41.4431 38.2514C41.2597 38.9066 41.1674 39.5838 41.1687 40.264L41.1638 40.2835ZM58.5073 57.0009C59.7624 56.8819 60.2066 56.6658 63.4549 55.0028C70.7574 51.2738 68.8759 45.6221 69.1502 37.8751H47.8619C48.1362 45.6221 46.2547 51.2738 53.5572 55.0028C56.8127 56.6658 57.2497 56.8819 58.5073 57.0009ZM81.2062 85.6822H93.3932L87.9502 67.6635C87.3652 65.8597 85.3939 64.3521 83.3814 63.9782L83.2357 63.9539L81.2062 85.6822ZM69.6674 60.9654C68.3758 59.3412 67.6645 56.258 67.2397 55.1388C61.7143 58.3361 55.3221 58.3434 49.787 55.1388C49.3549 56.2531 48.6436 59.3364 47.3593 60.9654L47.471 61.1741C49.8987 65.731 53.2974 69.8388 58.5218 71.0308C63.7316 69.8388 67.1401 65.731 69.5702 61.1741L69.6819 60.9654H69.6674Z" fill="#EF3B39"/>
</svg>
