<svg width="77" height="77" viewBox="0 0 77 77" fill="none" xmlns="http://www.w3.org/2000/svg">
<path fill-rule="evenodd" clip-rule="evenodd" d="M38.4952 0.00319847C59.7559 0.00319847 77 17.2389 77 38.4992C77 59.7595 59.7559 77 38.4952 77C17.2345 77 0 59.7595 0 38.496C0 17.2325 17.2345 0 38.4952 0V0.00319847ZM27.9136 19.1466C28.5159 19.1466 29.1047 19.3251 29.6056 19.6596C30.1066 19.9941 30.4971 20.4695 30.7279 21.0259C30.9587 21.5823 31.0194 22.1945 30.9023 22.7854C30.7853 23.3762 30.4957 23.9191 30.0703 24.3455C29.6448 24.7718 29.1025 25.0625 28.5119 25.1808C27.9213 25.299 27.3089 25.2396 26.752 25.01C26.1952 24.7804 25.7189 24.3909 25.3833 23.8907C25.0478 23.3905 24.868 22.802 24.8668 22.1997C24.8668 21.7996 24.9455 21.4034 25.0987 21.0338C25.2518 20.6641 25.4762 20.3282 25.7591 20.0453C26.0421 19.7624 26.378 19.538 26.7476 19.3849C27.1173 19.2317 27.5135 19.1529 27.9136 19.1529V19.1466ZM34.1207 50.0344V32.3625C34.1228 31.6256 34.4166 30.9195 34.9378 30.3986C35.4591 29.8776 36.1654 29.5843 36.9023 29.5826C37.639 29.5847 38.3448 29.8782 38.8657 30.3991C39.3866 30.92 39.6802 31.6259 39.6823 32.3625V41.6562C39.684 40.9193 39.9774 40.213 40.4983 39.6918C41.0193 39.1705 41.7254 38.8768 42.4623 38.8747C43.1993 38.8768 43.9054 39.1705 44.4263 39.6918C44.9473 40.213 45.2407 40.9193 45.2423 41.6562V42.3097H45.319V41.6562C45.3207 40.9193 45.6141 40.213 46.135 39.6918C46.656 39.1705 47.3621 38.8768 48.099 38.8747C48.8361 38.8768 49.5424 39.1705 50.0636 39.6917C50.5848 40.2129 50.8785 40.9192 50.8806 41.6562V42.1882C50.9906 41.54 51.326 40.9515 51.8276 40.5265C52.3292 40.1014 52.9649 39.8673 53.6223 39.8652C54.359 39.8673 55.0649 40.1609 55.5858 40.6818C56.1067 41.2027 56.4002 41.9085 56.4023 42.6452V56.2686C56.4024 56.6059 56.269 56.9295 56.0314 57.169C55.7937 57.4084 55.4711 57.5442 55.1338 57.5467H35.3909C35.0519 57.5467 34.7268 57.412 34.4871 57.1723C34.2474 56.9326 34.1127 56.6075 34.1127 56.2686V50.0376L34.1207 50.0344ZM27.9136 35.5994C28.5162 35.5994 29.1053 35.7781 29.6063 36.1129C30.1074 36.4477 30.4979 36.9235 30.7285 37.4802C30.9591 38.037 31.0194 38.6496 30.9019 39.2406C30.7843 39.8316 30.4941 40.3745 30.068 40.8006C29.6419 41.2267 29.099 41.5169 28.508 41.6344C27.917 41.752 27.3043 41.6916 26.7476 41.461C26.1909 41.2304 25.715 40.8399 25.3802 40.3389C25.0454 39.8378 24.8668 39.2488 24.8668 38.6462C24.8668 37.8381 25.1878 37.0632 25.7591 36.4918C26.3305 35.9204 27.1055 35.5994 27.9136 35.5994ZM45.2839 35.5994C45.8767 35.5993 46.4568 35.7722 46.9528 36.0969C47.4489 36.4215 47.8395 36.8838 48.0767 37.4272C47.0437 37.4333 46.0489 37.8182 45.2807 38.5088C44.5146 37.819 43.522 37.4341 42.4911 37.4272C42.7283 36.8838 43.1189 36.4215 43.6149 36.0969C44.111 35.7722 44.691 35.5993 45.2839 35.5994ZM27.9136 27.2915C28.5162 27.2912 29.1054 27.4695 29.6068 27.8039C30.1081 28.1383 30.4991 28.6138 30.7303 29.1704C30.9615 29.7269 31.0226 30.3395 30.9058 30.9307C30.789 31.5219 30.4996 32.0652 30.0741 32.492C29.6486 32.9188 29.1062 33.2099 28.5154 33.3286C27.9245 33.4472 27.3118 33.3881 26.7545 33.1586C26.1972 32.9292 25.7205 32.5397 25.3845 32.0394C25.0485 31.5391 24.8683 30.9505 24.8668 30.3479C24.8668 29.5398 25.1878 28.7649 25.7591 28.1935C26.3305 27.6221 27.1055 27.3011 27.9136 27.3011V27.2915ZM45.2839 27.2915C45.8865 27.2912 46.4758 27.4695 46.9771 27.8039C47.4785 28.1383 47.8694 28.6138 48.1006 29.1704C48.3318 29.7269 48.3929 30.3395 48.2761 30.9307C48.1593 31.5219 47.8699 32.0652 47.4444 32.492C47.0189 32.9188 46.4765 33.2099 45.8857 33.3286C45.2948 33.4472 44.682 33.3881 44.1248 33.1586C43.5675 32.9292 43.0908 32.5397 42.7548 32.0394C42.4188 31.5391 42.2386 30.9505 42.237 30.3479C42.237 29.5398 42.558 28.7649 43.1294 28.1935C43.7008 27.6221 44.4758 27.3011 45.2839 27.3011V27.2915ZM36.5987 27.2915C37.1403 27.2916 37.6721 27.436 38.1393 27.7097C38.6066 27.9835 38.9925 28.3768 39.2573 28.8492C38.3816 28.2596 37.3167 28.0198 36.2728 28.1772C35.2289 28.3346 34.282 28.8777 33.619 29.6992C33.7667 29.0175 34.1437 28.407 34.6872 27.9697C35.2306 27.5324 35.9076 27.2947 36.6051 27.2963L36.5987 27.2915ZM45.2839 19.1434C45.8861 19.1434 46.4748 19.3218 46.9756 19.6562C47.4764 19.9905 47.867 20.4658 48.0979 21.022C48.3288 21.5781 48.3896 22.1903 48.2728 22.781C48.1561 23.3718 47.8668 23.9146 47.4417 24.3411C47.0165 24.7676 46.4745 25.0585 45.8841 25.1772C45.2937 25.2958 44.6814 25.2369 44.1245 25.0077C43.5676 24.7786 43.0911 24.3896 42.7552 23.8898C42.4193 23.39 42.2389 22.8019 42.237 22.1997C42.237 21.7996 42.3159 21.4034 42.469 21.0338C42.6221 20.6641 42.8465 20.3282 43.1294 20.0453C43.4124 19.7624 43.7482 19.538 44.1179 19.3849C44.4876 19.2317 44.8838 19.1529 45.2839 19.1529V19.1434ZM36.5987 19.1434C37.2009 19.1434 37.7896 19.3218 38.2905 19.6562C38.7913 19.9905 39.1818 20.4658 39.4127 21.022C39.6436 21.5781 39.7045 22.1903 39.5877 22.781C39.4709 23.3718 39.1817 23.9146 38.7565 24.3411C38.3314 24.7676 37.7894 25.0585 37.199 25.1772C36.6086 25.2958 35.9963 25.2369 35.4394 25.0077C34.8825 24.7786 34.406 24.3896 34.07 23.8898C33.7341 23.39 33.5538 22.8019 33.5519 22.1997C33.5511 21.7985 33.6294 21.4011 33.7826 21.0303C33.9357 20.6595 34.1606 20.3226 34.4443 20.0389C34.728 19.7552 35.0649 19.5304 35.4357 19.3772C35.8065 19.2241 36.2039 19.1457 36.6051 19.1466L36.5987 19.1434Z" fill="#EF3B39"/>
</svg>
