<svg width="79" height="79" viewBox="0 0 79 79" fill="none" xmlns="http://www.w3.org/2000/svg">
<path fill-rule="evenodd" clip-rule="evenodd" d="M39.5008 1.0032C60.7637 1.0032 78 18.2469 78 39.496C78 60.7451 60.7637 78 39.5008 78C18.2379 78 1 60.7595 1 39.496C1 18.2325 18.2379 1 39.5088 1L39.5008 1.0032ZM23.7729 21.2601L33.4241 21.1739L32.4654 23.3531H26.0739V58.6681H53.1371V23.3595H46.4627L45.544 21.2665H55.2287V60.7531H23.7729V21.2601ZM26.852 24.1359H32.125L31.6073 25.315H47.3256L46.8079 24.1359H52.3541V57.8789H26.852V24.1343V24.1359ZM33.5136 30.3142L33.9817 31.5284L35.8065 31.6275L34.3876 32.781L34.867 34.5384L33.3314 33.5463L31.7942 34.5432L32.264 32.7858L30.8451 31.6323L32.6715 31.5332L33.3282 29.8301L33.5184 30.319L33.5136 30.3142ZM33.651 31.7984L33.3234 30.9516L32.9495 31.9198L31.9141 31.9757L32.713 32.6308L32.4462 33.6341L33.317 33.0702L34.1895 33.6341L33.9226 32.6308L34.7216 31.9757L33.6845 31.9198L33.6382 31.7984H33.651ZM33.5439 27.269C33.8811 27.6205 34.2054 27.8394 34.5106 27.8585C34.8158 27.8777 35.0971 27.7084 35.4166 27.2946L35.6291 27.0341L37.7064 28.9849L37.2686 29.1654C36.2331 29.5888 36.5607 30.3014 36.9618 31.1689C37.7607 32.8976 38.777 35.112 33.4464 37.3184L33.3298 37.3663L33.2148 37.3184C27.8858 35.112 28.9005 32.8976 29.6994 31.1689C30.0989 30.3014 30.4265 29.5888 29.391 29.1654L28.9532 28.9849L31.0305 27.0341L31.235 27.3009C31.5546 27.7147 31.8566 27.8825 32.1426 27.8649C32.4286 27.8474 32.7721 27.6269 33.1013 27.2754L33.3202 27.0453L33.5407 27.2754L33.5439 27.269ZM34.4723 28.4657C34.076 28.4417 33.6957 28.2372 33.3234 27.9049C32.9527 28.2372 32.5708 28.4417 32.1761 28.4657C31.7815 28.4896 31.358 28.3282 30.9666 27.9192L30.0366 28.7916C31.1551 29.445 30.746 30.3413 30.2523 31.4118C29.578 32.8752 28.7167 34.7493 33.3282 36.6937C37.9397 34.7493 37.0784 32.8752 36.4041 31.4118C35.912 30.3413 35.4997 29.445 36.6198 28.7916L35.6867 27.9129C35.2952 28.3203 34.8877 28.4864 34.4771 28.4593L34.4723 28.4657ZM49.1232 40.0616H30.81V39.3075H49.1232V40.0616ZM49.1232 55.4872H30.81V54.733H49.1232V55.4872ZM49.1232 51.6304H30.81V50.8763H49.1232V51.6304ZM49.1232 47.7752H30.81V47.0195H49.1232V47.7752ZM49.1232 43.9184H30.81V43.1707H49.1232V43.9248V43.9184ZM40.7567 28.6765H49.1232V29.4306H40.7567V28.675V28.6765ZM40.7567 35.1072H49.1232V35.8613H40.7567V35.1072ZM40.7567 31.8911H49.1232V32.6468H40.7567V31.8911ZM46.5091 24.7798L44.5693 20.3638H41.8417C41.8417 19.1927 40.7791 18.2453 39.4704 18.2453C38.1618 18.2453 37.1008 19.1927 37.1008 20.3638H34.3716L32.4334 24.7782L46.5091 24.7798ZM39.4641 19.0106C40.2997 19.0106 40.9772 19.6145 40.9772 20.3622C40.9772 21.1099 40.2997 21.7139 39.4641 21.7139C38.6284 21.7139 37.9525 21.1084 37.9525 20.3622C37.9525 19.6161 38.63 19.0106 39.4641 19.0106Z" fill="#EF3B39" stroke="#201600" stroke-width="0.201082" stroke-miterlimit="22.93"/>
</svg>
