<svg width="77" height="78" viewBox="0 0 77 78" fill="none" xmlns="http://www.w3.org/2000/svg">
<path fill-rule="evenodd" clip-rule="evenodd" d="M38.4952 0.00324001C59.7559 0.00324001 77 17.4628 77 38.9992C77 60.5356 59.7559 78 38.4952 78C17.2345 78 0 60.5356 0 38.996C0 17.4563 17.2345 0 38.4952 0V0.00324001ZM23.6972 21.538L63.5505 35.2946L62.774 37.5329L47.3864 44.934L20.0177 34.9353L23.6924 21.538H23.6972ZM21.5339 37.6268L47.8658 47.2499L52.8538 44.4986L51.4159 48.5447L50.7656 50.3703L45.6146 48.488L37.9248 45.6784L33.627 51.2588C33.7181 51.9301 33.5912 52.6132 33.2653 53.205C32.9394 53.7967 32.4323 54.265 31.8205 54.5391C31.2087 54.8133 30.5255 54.8783 29.8741 54.7245C29.2226 54.5707 28.6382 54.2063 28.2091 53.6864L19.2923 54.6947C18.9967 55.3118 18.5086 55.8132 17.9035 56.121C17.2983 56.4289 16.6099 56.5262 15.9447 56.3979C15.2794 56.2696 14.6745 55.9228 14.2234 55.4112C13.7723 54.8995 13.5002 54.2516 13.4493 53.5676C13.3983 52.8835 13.5712 52.2016 13.9414 51.6271C14.3115 51.0527 14.8582 50.6178 15.4969 50.3898C16.1356 50.1618 16.8306 50.1533 17.4746 50.3657C18.1185 50.578 18.6754 50.9994 19.0591 51.5646L27.6867 50.5855C27.972 49.8183 28.544 49.1957 29.2788 48.8523C30.0137 48.5089 30.8525 48.4722 31.6139 48.7502L34.8492 44.5504L20.8789 39.4459L21.5291 37.6203L21.5339 37.6268ZM63.5233 41.0999L61.4639 40.3473L55.6945 43.2524L53.6511 48.993L59.8965 51.2749L63.5233 41.0999Z" fill="#EF3B39"/>
</svg>
