<svg width="77" height="77" viewBox="0 0 77 77" fill="none" xmlns="http://www.w3.org/2000/svg">
<path fill-rule="evenodd" clip-rule="evenodd" d="M38.5016 0C59.7658 0 77 17.2444 77 38.4944C77 59.7444 59.7658 77 38.5016 77C17.2373 77 0 59.7588 0 38.4944C0 17.2301 17.2358 0 38.5016 0ZM30.0196 16.4983H46.99C47.6566 16.5 48.2954 16.7655 48.7667 17.2367C49.238 17.708 49.5036 18.3467 49.5053 19.0131V57.9869C49.5036 58.6533 49.238 59.292 48.7667 59.7633C48.2954 60.2345 47.6566 60.5 46.99 60.5017H30.0196C29.3524 60.5009 28.7128 60.2357 28.2408 59.7644C27.7688 59.293 27.5028 58.6539 27.5011 57.9869V19.0131C27.5028 18.3461 27.7688 17.707 28.2408 17.2356C28.7128 16.7643 29.3524 16.4991 30.0196 16.4983ZM38.5048 54.9064C38.8876 54.9061 39.2619 55.0193 39.5803 55.2317C39.8988 55.4441 40.1471 55.7462 40.2938 56.0997C40.4405 56.4533 40.479 56.8423 40.4046 57.2178C40.3301 57.5932 40.1459 57.9381 39.8753 58.2089C39.6047 58.4796 39.2599 58.6641 38.8845 58.7388C38.5091 58.8136 38.1199 58.7754 37.7662 58.629C37.4125 58.4826 37.1102 58.2346 36.8975 57.9164C36.6848 57.5982 36.5712 57.224 36.5712 56.8413C36.5712 56.3284 36.7749 55.8365 37.1375 55.4737C37.5 55.1109 37.9918 54.9068 38.5048 54.9064ZM35.6284 18.2366H41.3812C41.4145 18.237 41.4464 18.2505 41.47 18.2741C41.4935 18.2976 41.507 18.3295 41.5074 18.3629V19.141C41.507 19.1742 41.4935 19.2059 41.4699 19.2292C41.4462 19.2525 41.4144 19.2656 41.3812 19.2656H35.6284C35.5954 19.2656 35.5637 19.2525 35.5403 19.2291C35.5169 19.2057 35.5038 19.174 35.5038 19.141V18.3629C35.5038 18.3297 35.5169 18.2978 35.5402 18.2742C35.5635 18.2505 35.5952 18.2371 35.6284 18.2366ZM29.3468 21.3235H47.6564V53.3997H29.3468V21.3235Z" fill="#EF3B39"/>
</svg>
