<svg width="77" height="76" viewBox="0 0 77 76" fill="none" xmlns="http://www.w3.org/2000/svg">
<path fill-rule="evenodd" clip-rule="evenodd" d="M38.4952 0C59.7559 0 77 17.0126 77 37.9976C77 58.9827 59.7559 76 38.4952 76C17.2345 76 0 58.9827 0 37.9945C0 17.0063 17.2345 0 38.4952 0ZM38.9745 19.6541C39.3593 19.6553 39.728 19.8067 40.0001 20.0753C40.2722 20.3439 40.4256 20.7077 40.4268 21.0875V25.131C40.4256 25.5108 40.2722 25.8746 40.0001 26.1432C39.728 26.4118 39.3593 26.5632 38.9745 26.5644C38.5897 26.5632 38.2211 26.4118 37.949 26.1432C37.6769 25.8746 37.5235 25.5108 37.5222 25.131V21.0875C37.5235 20.7077 37.6769 20.3439 37.949 20.0753C38.2211 19.8067 38.5897 19.6553 38.9745 19.6541ZM38.5272 27.6368C41.439 27.6355 44.2321 28.7758 46.2922 30.8069C48.3524 32.838 49.5109 35.5935 49.513 38.4676V49.7178H27.5525V46.0908C27.5525 44.304 27.4438 39.7718 27.5525 38.4676C27.5522 37.3609 27.723 36.2606 28.059 35.2048C28.1995 34.5899 28.4453 34.0033 28.7859 33.4701C29.7123 31.7083 31.1111 30.2315 32.8298 29.2008C34.5485 28.1702 36.521 27.6254 38.532 27.6258L38.5272 27.6368ZM33.9066 47.7718H29.4154V47.2814C29.4154 44.427 28.9856 36.5578 30.6105 34.2239C32.1986 31.2103 35.2167 29.4661 38.7476 28.9425C35.4532 30.1221 33.5743 35.5659 33.9082 39.4106C33.8075 40.8141 33.8938 45.4363 33.9082 47.7687L33.9066 47.7718ZM26.6658 56.3491H52.0901V52.722C52.0884 52.2802 51.9097 51.8569 51.5931 51.5446C51.2764 51.2323 50.8474 51.0564 50.3997 51.0551H26.6658C26.2181 51.0564 25.7891 51.2323 25.4724 51.5446C25.1558 51.8569 24.9771 52.2802 24.9754 52.722V56.3491H26.6658ZM53.0743 24.7099C52.8018 24.4417 52.4326 24.2911 52.0478 24.2911C51.6629 24.2911 51.2938 24.4417 51.0213 24.7099L48.1246 27.569C47.8529 27.838 47.7003 28.2023 47.7003 28.5822C47.7003 28.9621 47.8529 29.3264 48.1246 29.5954C48.3971 29.8636 48.7663 30.0142 49.1511 30.0142C49.536 30.0142 49.9051 29.8636 50.1777 29.5954L53.0743 26.7363C53.346 26.4673 53.4986 26.103 53.4986 25.7231C53.4986 25.3433 53.346 24.9789 53.0743 24.7099ZM24.6606 24.7099C24.9335 24.4416 25.3029 24.291 25.688 24.291C26.0731 24.291 26.4425 24.4416 26.7153 24.7099L29.6119 27.569C29.8829 27.8384 30.0349 28.2026 30.0349 28.5822C30.0349 28.9618 29.8829 29.326 29.6119 29.5954C29.3391 29.8637 28.9697 30.0144 28.5846 30.0144C28.1995 30.0144 27.8301 29.8637 27.5573 29.5954L24.6606 26.7363C24.3889 26.4673 24.2363 26.103 24.2363 25.7231C24.2363 25.3433 24.3889 24.9789 24.6606 24.7099ZM19.091 37.4457C19.0923 37.0659 19.2457 36.702 19.5178 36.4334C19.7899 36.1649 20.1586 36.0134 20.5433 36.0122H24.6415C25.0263 36.0134 25.3949 36.1649 25.667 36.4334C25.9391 36.702 26.0925 37.0659 26.0938 37.4457C26.0925 37.8255 25.9391 38.1894 25.667 38.4579C25.3949 38.7265 25.0263 38.8779 24.6415 38.8792H20.5433C20.1586 38.8779 19.7899 38.7265 19.5178 38.4579C19.2457 38.1894 19.0923 37.8255 19.091 37.4457ZM50.8982 37.4457C50.8995 37.0659 51.0529 36.702 51.325 36.4334C51.5971 36.1649 51.9658 36.0134 52.3505 36.0122H56.4471C56.8319 36.0134 57.2005 36.1649 57.4726 36.4334C57.7447 36.702 57.8981 37.0659 57.8994 37.4457C57.8981 37.8255 57.7447 38.1894 57.4726 38.4579C57.2005 38.7265 56.8319 38.8779 56.4471 38.8792H52.3505C51.9658 38.8779 51.5971 38.7265 51.325 38.4579C51.0529 38.1894 50.8995 37.8255 50.8982 37.4457Z" fill="#EF3B39"/>
</svg>
