<svg width="77" height="77" viewBox="0 0 77 77" fill="none" xmlns="http://www.w3.org/2000/svg">
<path fill-rule="evenodd" clip-rule="evenodd" d="M38.4952 0.00319847C59.7559 0.00319847 77 17.2389 77 38.4992C77 59.7595 59.7559 77 38.4952 77C17.2345 77 0 59.7595 0 38.496C0 17.2325 17.2345 0 38.4952 0V0.00319847ZM20.5785 29.0585C19.9123 31.1723 20.8325 30.7888 22.2321 31.201C23.4256 31.5525 23.9736 33.1182 23.7388 34.0577C22.5437 38.8395 19.6982 43.2427 17.0859 47.5213C15.0744 50.8157 17.1051 51.9085 17.0859 51.7983H29.6886C29.6886 51.7983 30.4715 51.827 30.6281 50.8876C30.8214 49.7277 28.9121 48.98 29.9618 47.8344C30.823 46.895 31.2544 46.6058 31.2544 45.6935C31.2544 44.7813 30.5306 44.2556 32.0964 43.3162C34.3092 41.9885 31.8487 38.6446 34.5025 37.9528C35.4308 37.7099 36.1689 38.0295 36.8304 38.8523L44.4371 38.8667C45.6993 38.8667 46.0029 38.4752 46.0029 37.849C46.0029 37.4352 46.0571 34.4938 46.0939 32.5654H49.3676V29.0601L20.5785 29.0585ZM37.9072 33.2237H39.2845V35.5611H38.4377L36.8208 34.1871C37.1275 33.4889 37.3544 33.2173 37.9072 33.2173V33.2237ZM19.4345 52.5811H27.9711V53.5605H19.4393V52.5811H19.4345ZM47.1915 23.4363V23.8198C47.1907 24.1831 47.046 24.5312 46.7891 24.7881C46.5322 25.045 46.184 25.1897 45.8207 25.1906H39.3724C39.0371 25.1892 38.7139 25.0656 38.4633 24.8429C38.2127 24.6203 38.0519 24.3138 38.0111 23.9811H33.4672V23.4363H47.1915ZM20.8916 23.4363H32.5549V24.8886H37.3576C37.5521 25.2529 37.8418 25.5576 38.1957 25.7703C38.5496 25.983 38.9546 26.0957 39.3676 26.0964H45.8159C46.1155 26.0971 46.4123 26.0387 46.6894 25.9246C46.9664 25.8105 47.2183 25.643 47.4306 25.4316C47.6429 25.2202 47.8115 24.969 47.9267 24.6925C48.042 24.4159 48.1016 24.1194 48.1022 23.8198V23.4363H60.7992V28.1527H29.1087V24.7752H28.2076V28.1527H27.5813V24.7752H26.6817V28.1527H25.7822V24.7752H24.8811V28.1527H24.242V24.7752H23.3377V28.1527H20.8932V23.4363H20.8916ZM50.1537 29.0601H60.7944V32.5654H50.1537V29.0601ZM26.939 49.8171C27.1802 49.1781 27.8081 47.7306 28.5447 46.0338C29.9986 42.6787 31.8807 38.3458 31.9238 37.8729C31.9238 37.8074 31.9318 37.7339 31.9318 37.654C31.9365 37.3764 31.8757 37.1015 31.7544 36.8517C31.6331 36.6019 31.4547 36.3842 31.2336 36.2161C30.7267 35.8497 30.126 35.6353 29.5017 35.5978C29.3723 35.5866 29.2333 35.5802 29.0831 35.5802C28.2251 35.5802 27.3959 35.7049 26.7329 36.0596C26.3932 36.2343 26.0956 36.4808 25.8608 36.7821C25.626 37.0834 25.4596 37.4322 25.3732 37.8042C25.2058 38.4352 25.0026 39.0561 24.7645 39.6639C24.5472 40.2231 24.3171 40.7312 24.0983 41.1881C23.4048 42.6372 22.3408 44.0288 21.3821 45.2765C20.3021 46.6905 19.3435 47.9223 19.3435 48.7116C19.3435 49.3826 20.1903 49.7804 22.5804 49.7804C24.2676 49.7804 26.2552 49.8076 26.9326 49.8171H26.939ZM29.1534 46.3022C28.2395 48.4016 27.4918 50.1111 27.4918 50.159V50.4962H27.153C27.153 50.4962 24.7485 50.4578 22.5804 50.4578C19.7046 50.4578 18.6788 49.8187 18.6788 48.7243C18.6788 47.713 19.6854 46.3965 20.8517 44.8739C21.7896 43.6485 22.8329 42.2841 23.4943 40.9021C23.7052 40.4612 23.9273 39.9707 24.1334 39.4243C24.362 38.8393 24.5573 38.2419 24.7181 37.6349C24.827 37.1698 25.0362 36.7341 25.3313 36.3585C25.6263 35.9828 26 35.6763 26.4261 35.4604C27.1994 35.0562 28.1309 34.9092 29.0831 34.9092C29.2343 34.9092 29.3941 34.9172 29.5624 34.9332C30.3126 34.9819 31.0333 35.2441 31.6394 35.6889C31.943 35.9179 32.1881 36.2154 32.3547 36.5573C32.5213 36.8991 32.6047 37.2754 32.5981 37.6556C32.5981 37.7366 32.5933 37.8292 32.5837 37.9336C32.531 38.512 30.6249 42.9056 29.1534 46.2991V46.3022ZM37.9072 32.6517H43.5568C43.6743 32.6517 43.787 32.6983 43.8702 32.7812C43.9535 32.8642 44.0005 32.9767 44.0009 33.0943V37.1779C44.0005 37.2956 43.9536 37.4083 43.8704 37.4915C43.7872 37.5747 43.6744 37.6217 43.5568 37.6221H37.9072C35.2023 37.6221 35.6704 32.6517 37.9072 32.6517Z" fill="#EF3B39"/>
</svg>
