<svg width="149" height="130" viewBox="0 0 149 130" fill="none" xmlns="http://www.w3.org/2000/svg">
<path d="M0.0346779 67.3063C5.54855 67.3063 11.0624 67.3063 16.6457 67.3063C16.6457 68.938 16.6457 70.5357 16.6457 72.2013C13.1084 72.2013 9.60593 72.2013 6.03405 72.2013C6.03405 73.4591 6.03405 74.6488 6.03405 75.9066C9.57125 75.9066 13.0738 75.9066 16.611 75.9066C16.611 80.5296 16.611 85.0847 16.611 89.7418C11.0624 89.7418 5.54855 89.7418 0 89.7418C0 88.1101 0 86.4784 0 84.8468C3.5372 84.8468 7.10908 84.8468 10.681 84.8468C10.681 83.487 10.681 82.1953 10.681 80.8356C10.3689 80.8356 10.1261 80.8356 9.84868 80.8356C6.86633 80.8356 3.88399 80.8356 0.901639 80.8356C0.589533 80.8356 0.312106 80.8016 0 80.7676C0.0346784 76.2805 0.0346779 71.7934 0.0346779 67.3063Z" fill="white"/>
<path d="M67.8523 33.4222C54.9516 24.365 42.0852 15.342 29.1161 6.25066C29.2188 24.741 29.3214 43.0946 29.4241 61.5165C20.1507 61.5165 10.98 61.5165 1.8092 61.5165V61.4824C9.54275 60.5596 17.3105 59.6026 25.1125 58.6456C25.1125 58.338 25.1125 58.0646 25.1125 57.8253C24.9756 39.7451 24.873 21.6991 24.7361 3.61896C24.7361 3.03793 24.7361 2.42272 24.8045 1.8417C25.044 0.337865 26.5497 -0.414052 27.9185 0.269509C28.3975 0.508755 28.8424 0.850535 29.2872 1.15814C41.9141 10.0102 54.5068 18.8624 67.0995 27.7145C67.5785 28.0562 67.8865 28.0562 68.3998 27.7145C81.0267 18.7598 93.6536 9.80518 106.28 0.884713C106.691 0.611289 107.102 0.303687 107.581 0.132797C108.505 -0.208984 109.463 0.132796 110.01 0.884713C110.524 1.67081 110.489 2.69615 109.873 3.41389C109.565 3.75567 109.189 4.02909 108.847 4.30252C95.2276 14.0091 81.5742 23.6815 67.8523 33.4222Z" fill="white"/>
<path d="M145.831 95.668C142.411 96.0431 138.957 96.4183 135.538 96.7934C132.05 97.1685 128.562 97.5778 125.074 97.987C123.638 98.1576 122.236 98.294 120.8 98.4304C120.184 98.4986 119.774 98.6691 119.466 99.3171C116.628 105.66 112.217 110.776 106.814 115.039C99.7697 120.598 91.8023 124.315 83.2877 127.044C80.3811 127.964 77.3719 128.681 74.397 129.465C74.055 129.567 73.6447 129.567 73.3369 129.499C63.4887 127.316 54.1535 123.872 45.6047 118.449C39.7915 114.766 34.7307 110.264 30.9692 104.433C29.8408 102.693 28.9517 100.818 27.9942 99.0102C27.789 98.6009 27.5497 98.3963 27.1051 98.3281C24.4721 98.0552 21.8733 97.7483 19.2403 97.4755C16.1285 97.1344 12.9826 96.7934 9.87082 96.4183C7.54555 96.1454 5.22029 95.9067 2.89502 95.5657C3.13439 95.5657 3.33956 95.5657 3.57892 95.5657C12.5722 95.5657 21.5313 95.5657 30.5247 95.5657C31.0376 95.5657 31.2428 95.7021 31.4479 96.2136C34.0809 102.864 38.5605 108.048 44.2027 112.311C51.1443 117.563 58.975 121.041 67.2844 123.531C69.2335 124.111 71.2168 124.588 73.2001 125.1C73.5421 125.202 73.9524 125.202 74.2602 125.134C83.4245 122.985 92.1442 119.745 100.077 114.596C105.685 110.947 110.541 106.547 113.926 100.715C114.781 99.283 115.465 97.7142 116.115 96.1795C116.354 95.668 116.594 95.5316 117.107 95.5316C126.168 95.5316 135.196 95.5316 144.258 95.5316C144.77 95.5316 145.249 95.5316 145.762 95.5316C145.796 95.5998 145.796 95.6339 145.831 95.668Z" fill="#EF3B39"/>
<path d="M123.074 58.5096C131.354 59.5005 139.497 60.4914 147.64 61.4482C147.64 61.4824 147.64 61.4824 147.64 61.5165C138.048 61.5165 128.422 61.5165 118.726 61.5165C118.83 43.1329 118.933 24.7493 119.037 6.29739C118.761 6.46824 118.554 6.60492 118.347 6.74161C110.411 12.2772 102.476 17.7786 94.54 23.3142C89.8821 26.5604 85.2587 29.8065 80.6354 33.0527C80.3249 33.2577 79.8763 33.3944 79.4968 33.3944C77.3231 33.4286 75.1494 33.3944 72.7343 33.3944C73.0793 33.1552 73.2518 32.9844 73.4243 32.8477C78.8067 29.0548 84.1892 25.2277 89.6061 21.469C99.6119 14.4983 109.583 7.59586 119.554 0.659299C120.348 0.112574 121.176 -0.229128 122.142 0.180915C123.177 0.659299 123.488 1.5819 123.488 2.607C123.488 4.28135 123.419 5.98986 123.419 7.6642C123.315 24.3393 123.212 41.0144 123.108 57.6895C123.074 57.9628 123.074 58.202 123.074 58.5096Z" fill="#EF3B39"/>
<path d="M97.8533 82.6372C96.8144 82.6372 95.8793 82.6372 94.7365 82.6372C96.0871 85.0167 97.4031 87.3283 98.7884 89.7418C98.4421 89.7418 98.2343 89.7418 97.9919 89.7418C96.2257 89.7418 94.4248 89.7418 92.6586 89.7418C92.2431 89.7418 92.0353 89.6058 91.8621 89.2659C90.9271 87.4302 89.9574 85.6626 89.0916 83.827C88.8145 83.2151 88.4682 82.9431 87.8102 83.0451C87.5678 83.0791 87.3254 83.0451 86.9791 83.0451C86.9791 85.2887 86.9791 87.4642 86.9791 89.6738C84.9705 89.6738 83.0657 89.6738 81.0571 89.6738C81.0571 82.2293 81.0571 74.8188 81.0571 67.3063C86.6328 67.3063 92.2431 67.3063 97.8533 67.3063C97.8533 72.4393 97.8533 77.5043 97.8533 82.6372ZM91.8967 77.7082C91.8967 75.9746 91.8967 74.3089 91.8967 72.6432C90.2344 72.6432 88.6068 72.6432 86.9791 72.6432C86.9791 74.3769 86.9791 76.0425 86.9791 77.7082C88.6414 77.7082 90.2344 77.7082 91.8967 77.7082Z" fill="white"/>
<path d="M66.3923 84.0136C68.1106 84.0136 69.7587 84.0136 71.442 84.0136C71.442 78.4559 71.442 72.8981 71.442 67.3063C73.4759 67.3063 75.4396 67.3063 77.4384 67.3063C77.4384 74.7734 77.4384 82.2405 77.4384 89.7418C71.7926 89.7418 66.1468 89.7418 60.4309 89.7418C60.4309 82.3087 60.4309 74.8416 60.4309 67.3404C62.3947 67.3404 64.3584 67.3404 66.3923 67.3404C66.3923 72.864 66.3923 78.4218 66.3923 84.0136Z" fill="white"/>
<path d="M50.9556 75.3995C50.9556 74.5799 50.9556 73.8286 50.9556 73.0432C49.3116 73.0432 47.7018 73.0432 46.0578 73.0432C46.0578 76.663 46.0578 80.3168 46.0578 84.0048C47.6676 84.0048 49.2773 84.0048 50.9213 84.0048C50.9213 83.2194 50.9213 82.4682 50.9213 81.6486C52.9079 81.6486 54.8259 81.6486 56.7782 81.6486C56.7782 84.3122 56.7782 87.0099 56.7782 89.7418C51.2639 89.7418 45.7495 89.7418 40.1667 89.7418C40.1667 82.2974 40.1667 74.819 40.1667 67.3063C45.7153 67.3063 51.2296 67.3063 56.8124 67.3063C56.8124 70.004 56.8124 72.7018 56.8124 75.3995C54.8601 75.3995 52.9421 75.3995 50.9556 75.3995Z" fill="white"/>
<path d="M20.6262 89.7418C20.6262 82.2633 20.6262 74.819 20.6262 67.3063C25.8129 67.3063 30.9655 67.3063 36.1863 67.3063C36.1863 69.0137 36.1863 70.7553 36.1863 72.5652C32.9787 72.5652 29.7712 72.5652 26.4954 72.5652C26.4954 73.6921 26.4954 74.7165 26.4954 75.8434C28.065 75.8434 29.6347 75.8434 31.2385 75.8434C31.2385 77.6533 31.2385 79.3607 31.2385 81.1705C29.6688 81.1705 28.0991 81.1705 26.4954 81.1705C26.4954 82.2974 26.4954 83.3219 26.4954 84.4488C29.7029 84.4488 32.9105 84.4488 36.1522 84.4488C36.1522 86.2586 36.1522 87.966 36.1522 89.7418C31.0337 89.7418 25.847 89.7418 20.6262 89.7418Z" fill="white"/>
<path d="M78.8859 61.1547C74.1703 61.1547 69.4889 61.1547 64.7733 61.1547C64.7733 54.7505 64.7733 48.4141 64.7733 41.976C69.4889 41.976 74.1703 41.976 78.8859 41.976C78.8859 48.3802 78.8859 54.7505 78.8859 61.1547ZM73.9311 46.8892C72.496 46.8892 71.1633 46.8892 69.7965 46.8892C69.7965 50.0405 69.7965 53.1579 69.7965 56.2753C71.1975 56.2753 72.5643 56.2753 73.9311 56.2753C73.9311 53.124 73.9311 50.0405 73.9311 46.8892Z" fill="#EF3B39"/>
<path d="M96.9456 55.6217C93.9679 55.6217 91.0572 55.6217 88.0795 55.6217C88.0795 57.4887 88.0795 59.2877 88.0795 61.1547C86.4401 61.1547 84.8677 61.1547 83.2283 61.1547C83.2283 54.7731 83.2283 48.3915 83.2283 41.976C87.8119 41.976 92.362 41.976 96.979 41.976C96.9456 46.4906 96.9456 51.0052 96.9456 55.6217ZM92.0274 51.0052C92.0274 49.6135 92.0274 48.2218 92.0274 46.864C90.6891 46.864 89.4178 46.864 88.0795 46.864C88.0795 48.2557 88.0795 49.6135 88.0795 51.0052C89.4178 51.0052 90.7226 51.0052 92.0274 51.0052Z" fill="#EF3B39"/>
<path d="M138.05 75.443C139.264 72.8556 140.408 70.3703 141.552 67.851C141.726 67.4765 141.934 67.3063 142.35 67.3063C144.188 67.3404 146.025 67.3063 148.002 67.3063C146.996 69.2469 146.06 71.0853 145.089 72.9577C143.772 75.477 142.489 77.9963 141.206 80.5497C141.067 80.788 141.032 81.1285 141.032 81.4008C141.032 83.9201 141.032 86.4394 141.032 88.9587C141.032 89.1971 141.032 89.4354 141.032 89.7418C139.056 89.7418 137.08 89.7418 135.069 89.7418C135.069 89.4694 135.069 89.2311 135.069 88.9928C135.069 86.5416 135.069 84.0903 135.069 81.6391C135.069 81.1966 134.93 80.6859 134.722 80.2773C132.676 76.226 130.561 72.2088 128.481 68.1574C128.342 67.9191 128.238 67.6808 128.099 67.3744C128.307 67.3404 128.481 67.3063 128.654 67.3063C130.284 67.3063 131.948 67.3404 133.578 67.3063C134.098 67.3063 134.34 67.4765 134.548 67.9532C135.589 70.2682 136.664 72.5832 137.738 74.8642C137.808 75.0345 137.912 75.2047 138.05 75.443Z" fill="white"/>
<path d="M122.056 89.7418C120.031 89.7418 118.143 89.7418 116.153 89.7418C116.153 84.1925 116.153 78.6432 116.153 72.9918C114.299 72.9918 112.549 72.9918 110.73 72.9918C110.73 71.0512 110.73 69.2128 110.73 67.3063C116.29 67.3063 121.816 67.3063 127.376 67.3063C127.376 69.1788 127.376 71.0512 127.376 72.9577C125.591 72.9577 123.84 72.9577 122.021 72.9577C122.056 78.6092 122.056 84.1584 122.056 89.7418Z" fill="white"/>
<path d="M57.799 61.1547C56.02 61.1547 54.3122 61.1547 52.5689 61.1547C52.5689 56.3769 52.5689 51.6331 52.5689 46.8215C50.9323 46.8215 49.3668 46.8215 47.7657 46.8215C47.7657 45.195 47.7657 43.6024 47.7657 41.976C52.6756 41.976 57.6211 41.976 62.6021 41.976C62.6021 43.5347 62.6021 45.1272 62.6021 46.7876C61.0366 46.7876 59.4712 46.7876 57.8345 46.7876C57.799 51.6331 57.799 56.3769 57.799 61.1547Z" fill="#EF3B39"/>
<path d="M102.045 67.3063C103.998 67.3063 105.916 67.3063 107.835 67.3063C107.835 74.8075 107.835 82.2405 107.835 89.7418C105.882 89.7418 103.998 89.7418 102.045 89.7418C102.045 82.2746 102.045 74.8075 102.045 67.3063Z" fill="white"/>
<path d="M73.3445 95.9262C72.9283 96.7129 72.55 97.3684 72.1717 98.0567C71.7556 98.8106 71.0368 99.5317 71.0368 100.286C71.0368 101.039 71.7556 101.793 72.1339 102.547C72.55 103.301 72.9662 104.088 73.458 104.94C72.4744 104.94 71.5286 104.94 70.6206 104.907C70.5071 104.907 70.3558 104.678 70.2802 104.547C69.864 103.727 69.4479 102.908 69.0317 102.088C68.7291 101.498 68.7291 101.498 67.8211 101.531C67.8211 102.613 67.8211 103.727 67.8211 104.874C66.8754 104.874 66.0431 104.874 65.1351 104.874C65.1351 101.924 65.1351 98.9417 65.1351 95.9262C66.0052 95.9262 66.8375 95.9262 67.7455 95.9262C67.7455 97.0079 67.7455 98.0567 67.7455 99.1056C68.4264 99.3351 68.8047 99.2039 69.0317 98.6467C69.3722 97.8601 69.7505 97.0734 70.2045 96.3195C70.318 96.1229 70.6585 95.9262 70.8854 95.8934C71.6421 95.8934 72.4365 95.9262 73.3445 95.9262Z" fill="#EF3B39"/>
<path d="M73.8309 95.8934C75.9984 95.8934 78.1331 95.8934 80.3335 95.8934C80.3335 96.6225 80.3335 97.3184 80.3335 98.0142C80.3335 98.1799 80.2021 98.3125 80.1036 98.445C79.1512 99.6048 78.1659 100.732 77.2136 101.858C77.0493 102.057 76.8523 102.289 76.5896 102.653C77.9361 102.653 79.1183 102.653 80.3335 102.653C80.3335 103.449 80.3335 104.178 80.3335 104.94C78.1659 104.94 76.0313 104.94 73.8309 104.94C73.8966 103.813 73.5353 102.72 74.5534 101.726C75.6043 100.698 76.4911 99.4723 77.542 98.2462C76.2612 98.2462 75.1117 98.2462 73.8966 98.2462C73.8309 97.4178 73.8309 96.6887 73.8309 95.8934Z" fill="#EF3B39"/>
</svg>
