<svg width="98" height="98" viewBox="0 0 98 98" fill="none" xmlns="http://www.w3.org/2000/svg">
<g filter="url(#filter0_d)">
<path fill-rule="evenodd" clip-rule="evenodd" d="M49 90C73.8528 90 94 69.8528 94 45C94 20.1472 73.8528 0 49 0C24.1472 0 4 20.1472 4 45C4 69.8528 24.1472 90 49 90ZM70.8513 32.671H28.1212V53.0634H70.8513V32.671ZM68.6416 56.1518C68.6416 56.4051 68.8214 56.576 69.053 56.576C69.2695 56.576 69.4584 56.4051 69.4584 56.1518C69.4584 55.9272 69.2695 55.7374 69.053 55.7374C68.8214 55.7374 68.6416 55.9272 68.6416 56.1518ZM46.7171 57.4843H25V28H74V57.4843H51.4872V59.6773H55.6539C57.7998 60.3166 59.6926 61.4651 59.6926 62.4873C59.6926 64.421 54.8766 66 48.9421 66C43.0137 66 38.1978 64.421 38.1978 62.4873C38.1978 61.3292 39.9079 60.3166 42.5443 59.6773H46.7171V57.4843Z" fill="white"/>
</g>
<defs>
<filter id="filter0_d" x="0" y="0" width="98" height="98" filterUnits="userSpaceOnUse" color-interpolation-filters="sRGB">
<feFlood flood-opacity="0" result="BackgroundImageFix"/>
<feColorMatrix in="SourceAlpha" type="matrix" values="0 0 0 0 0 0 0 0 0 0 0 0 0 0 0 0 0 0 127 0"/>
<feOffset dy="4"/>
<feGaussianBlur stdDeviation="2"/>
<feColorMatrix type="matrix" values="0 0 0 0 0 0 0 0 0 0 0 0 0 0 0 0 0 0 0.25 0"/>
<feBlend mode="normal" in2="BackgroundImageFix" result="effect1_dropShadow"/>
<feBlend mode="normal" in="SourceGraphic" in2="effect1_dropShadow" result="shape"/>
</filter>
</defs>
</svg>
