<svg width="98" height="98" viewBox="0 0 98 98" fill="none" xmlns="http://www.w3.org/2000/svg">
<g filter="url(#filter0_d)">
<path fill-rule="evenodd" clip-rule="evenodd" d="M49.0019 0C73.8562 0 94 20.1558 94 44.9935C94 69.8311 73.8562 90 49.0019 90C24.1476 90 4 69.8479 4 44.9935C4 20.139 24.1457 0 49.0019 0ZM39.0878 19.2837H58.9234C59.7025 19.2857 60.4491 19.596 61 20.1468C61.5509 20.6976 61.8613 21.4442 61.8633 22.2231V67.7769C61.8613 68.5558 61.5509 69.3024 61 69.8532C60.4491 70.404 59.7025 70.7143 58.9234 70.7163H39.0878C38.308 70.7153 37.5605 70.4054 37.0088 69.8545C36.4571 69.3036 36.1462 68.5565 36.1442 67.7769V22.2231C36.1462 21.4435 36.4571 20.6964 37.0088 20.1455C37.5605 19.5946 38.308 19.2847 39.0878 19.2837ZM49.0056 64.1763C49.453 64.176 49.8905 64.3083 50.2627 64.5566C50.6349 64.8048 50.9251 65.1579 51.0966 65.5711C51.2681 65.9843 51.3132 66.4391 51.2261 66.8779C51.139 67.3167 50.9238 67.7199 50.6075 68.0363C50.2913 68.3528 49.8882 68.5684 49.4494 68.6558C49.0106 68.7432 48.5557 68.6985 48.1423 68.5274C47.7289 68.3563 47.3756 68.0665 47.1269 67.6945C46.8783 67.3226 46.7456 66.8852 46.7456 66.4379C46.7456 65.8384 46.9837 65.2634 47.4074 64.8394C47.8312 64.4153 48.406 64.1768 49.0056 64.1763ZM45.6436 21.3155H52.3676C52.4066 21.316 52.4438 21.3317 52.4714 21.3593C52.4989 21.3869 52.5146 21.4241 52.5151 21.4631V22.3725C52.5146 22.4113 52.4989 22.4484 52.4713 22.4757C52.4436 22.5029 52.4064 22.5182 52.3676 22.5182H45.6436C45.605 22.5182 45.5679 22.5029 45.5406 22.4755C45.5133 22.4482 45.4979 22.4112 45.4979 22.3725V21.4631C45.4979 21.4243 45.5132 21.387 45.5405 21.3594C45.5678 21.3318 45.6048 21.316 45.6436 21.3155ZM38.3015 24.9235H59.7023V62.4153H38.3015V24.9235Z" fill="white"/>
</g>
<defs>
<filter id="filter0_d" x="0" y="0" width="98" height="98" filterUnits="userSpaceOnUse" color-interpolation-filters="sRGB">
<feFlood flood-opacity="0" result="BackgroundImageFix"/>
<feColorMatrix in="SourceAlpha" type="matrix" values="0 0 0 0 0 0 0 0 0 0 0 0 0 0 0 0 0 0 127 0"/>
<feOffset dy="4"/>
<feGaussianBlur stdDeviation="2"/>
<feColorMatrix type="matrix" values="0 0 0 0 0 0 0 0 0 0 0 0 0 0 0 0 0 0 0.25 0"/>
<feBlend mode="normal" in2="BackgroundImageFix" result="effect1_dropShadow"/>
<feBlend mode="normal" in="SourceGraphic" in2="effect1_dropShadow" result="shape"/>
</filter>
</defs>
</svg>
