<svg width="100" height="100" viewBox="0 0 100 100" fill="none" xmlns="http://www.w3.org/2000/svg">
<g filter="url(#filter0_d)">
<path fill-rule="evenodd" clip-rule="evenodd" d="M50.0009 1.00374C74.8537 1.00374 95 21.1587 95 45.9953C95 70.8319 74.8537 91 50.0009 91C25.1482 91 5 70.8487 5 45.9953C5 21.1419 25.1482 1 50.0103 1L50.0009 1.00374ZM31.6177 24.6807L42.8983 24.5798L41.7777 27.127H34.3071V68.4043H65.9394V27.1345H58.1383L57.0644 24.6881H68.3842V70.8413H31.6177V24.6807ZM35.2166 28.042H41.3799L40.7748 29.4202H59.1468L58.5417 28.042H65.0243V67.4818H35.2166V28.0401V28.042ZM43.0029 35.2633L43.5501 36.6825L45.6829 36.7983L44.0245 38.1466L44.5848 40.2007L42.79 39.0411L40.9933 40.2063L41.5424 38.1522L39.8839 36.8039L42.0186 36.6881L42.7862 34.6975L43.0085 35.2689L43.0029 35.2633ZM43.1635 36.9981L42.7806 36.0084L42.3436 37.1401L41.1334 37.2054L42.0672 37.9711L41.7553 39.1438L42.7731 38.4846L43.7929 39.1438L43.481 37.9711L44.4148 37.2054L43.2027 37.1401L43.1485 36.9981H43.1635ZM43.0383 31.704C43.4324 32.1148 43.8116 32.3707 44.1683 32.3931C44.525 32.4155 44.8537 32.2176 45.2272 31.7339L45.4756 31.4295L47.9036 33.7096L47.3918 33.9206C46.1816 34.4155 46.5645 35.2484 47.0332 36.2624C47.9671 38.2829 49.1549 40.8711 42.9244 43.45L42.7881 43.5061L42.6536 43.45C36.425 40.8711 37.611 38.2829 38.5448 36.2624C39.0117 35.2484 39.3946 34.4155 38.1843 33.9206L37.6726 33.7096L40.1005 31.4295L40.3396 31.7414C40.7131 32.225 41.0661 32.4211 41.4004 32.4006C41.7347 32.38 42.1363 32.1223 42.521 31.7115L42.7769 31.4426L43.0346 31.7115L43.0383 31.704ZM44.1235 33.1027C43.6603 33.0747 43.2158 32.8357 42.7806 32.4472C42.3473 32.8357 41.901 33.0747 41.4396 33.1027C40.9783 33.1307 40.4834 32.9421 40.0258 32.464L38.9389 33.4837C40.2462 34.2474 39.7681 35.2951 39.191 36.5462C38.4029 38.2568 37.3962 40.4473 42.7862 42.7199C48.1762 40.4473 47.1696 38.2568 46.3814 36.5462C45.8062 35.2951 45.3243 34.2474 46.6336 33.4837L45.5429 32.4566C45.0853 32.9328 44.609 33.127 44.1291 33.0952L44.1235 33.1027ZM61.2479 46.6564H39.8428V45.775H61.2479V46.6564ZM61.2479 64.6863H39.8428V63.8049H61.2479V64.6863ZM61.2479 60.1783H39.8428V59.2969H61.2479V60.1783ZM61.2479 55.6723H39.8428V54.789H61.2479V55.6723ZM61.2479 51.1643H39.8428V50.2904H61.2479V51.1718V51.1643ZM51.4689 33.3492H61.2479V34.2306H51.4689V33.3473V33.3492ZM51.4689 40.8656H61.2479V41.747H51.4689V40.8656ZM51.4689 37.1064H61.2479V37.9897H51.4689V37.1064ZM58.1924 28.7946L55.9251 23.6331H52.737C52.737 22.2642 51.495 21.1569 49.9654 21.1569C48.4358 21.1569 47.1957 22.2642 47.1957 23.6331H44.0058L41.7403 28.7927L58.1924 28.7946ZM49.958 22.0514C50.9348 22.0514 51.7266 22.7572 51.7266 23.6312C51.7266 24.5051 50.9348 25.211 49.958 25.211C48.9812 25.211 48.1912 24.5033 48.1912 23.6312C48.1912 22.7591 48.9831 22.0514 49.958 22.0514Z" fill="white"/>
<path fill-rule="evenodd" clip-rule="evenodd" d="M50.0009 1.00374C74.8537 1.00374 95 21.1587 95 45.9953C95 70.8319 74.8537 91 50.0009 91C25.1482 91 5 70.8487 5 45.9953C5 21.1419 25.1482 1 50.0103 1L50.0009 1.00374ZM31.6177 24.6807L42.8983 24.5798L41.7777 27.127H34.3071V68.4043H65.9394V27.1345H58.1383L57.0644 24.6881H68.3842V70.8413H31.6177V24.6807ZM35.2166 28.042H41.3799L40.7748 29.4202H59.1468L58.5417 28.042H65.0243V67.4818H35.2166V28.0401V28.042ZM43.0029 35.2633L43.5501 36.6825L45.6829 36.7983L44.0245 38.1466L44.5848 40.2007L42.79 39.0411L40.9933 40.2063L41.5424 38.1522L39.8839 36.8039L42.0186 36.6881L42.7862 34.6975L43.0085 35.2689L43.0029 35.2633ZM43.1635 36.9981L42.7806 36.0084L42.3436 37.1401L41.1334 37.2054L42.0672 37.9711L41.7553 39.1438L42.7731 38.4846L43.7929 39.1438L43.481 37.9711L44.4148 37.2054L43.2027 37.1401L43.1485 36.9981H43.1635ZM43.0383 31.704C43.4324 32.1148 43.8116 32.3707 44.1683 32.3931C44.525 32.4155 44.8537 32.2176 45.2272 31.7339L45.4756 31.4295L47.9036 33.7096L47.3918 33.9206C46.1816 34.4155 46.5645 35.2484 47.0332 36.2624C47.9671 38.2829 49.1549 40.8711 42.9244 43.45L42.7881 43.5061L42.6536 43.45C36.425 40.8711 37.611 38.2829 38.5448 36.2624C39.0117 35.2484 39.3946 34.4155 38.1843 33.9206L37.6726 33.7096L40.1005 31.4295L40.3396 31.7414C40.7131 32.225 41.0661 32.4211 41.4004 32.4006C41.7347 32.38 42.1363 32.1223 42.521 31.7115L42.7769 31.4426L43.0346 31.7115L43.0383 31.704ZM44.1235 33.1027C43.6603 33.0747 43.2158 32.8357 42.7806 32.4472C42.3473 32.8357 41.901 33.0747 41.4396 33.1027C40.9783 33.1307 40.4834 32.9421 40.0258 32.464L38.9389 33.4837C40.2462 34.2474 39.7681 35.2951 39.191 36.5462C38.4029 38.2568 37.3962 40.4473 42.7862 42.7199C48.1762 40.4473 47.1696 38.2568 46.3814 36.5462C45.8062 35.2951 45.3243 34.2474 46.6336 33.4837L45.5429 32.4566C45.0853 32.9328 44.609 33.127 44.1291 33.0952L44.1235 33.1027ZM61.2479 46.6564H39.8428V45.775H61.2479V46.6564ZM61.2479 64.6863H39.8428V63.8049H61.2479V64.6863ZM61.2479 60.1783H39.8428V59.2969H61.2479V60.1783ZM61.2479 55.6723H39.8428V54.789H61.2479V55.6723ZM61.2479 51.1643H39.8428V50.2904H61.2479V51.1718V51.1643ZM51.4689 33.3492H61.2479V34.2306H51.4689V33.3473V33.3492ZM51.4689 40.8656H61.2479V41.747H51.4689V40.8656ZM51.4689 37.1064H61.2479V37.9897H51.4689V37.1064ZM58.1924 28.7946L55.9251 23.6331H52.737C52.737 22.2642 51.495 21.1569 49.9654 21.1569C48.4358 21.1569 47.1957 22.2642 47.1957 23.6331H44.0058L41.7403 28.7927L58.1924 28.7946ZM49.958 22.0514C50.9348 22.0514 51.7266 22.7572 51.7266 23.6312C51.7266 24.5051 50.9348 25.211 49.958 25.211C48.9812 25.211 48.1912 24.5033 48.1912 23.6312C48.1912 22.7591 48.9831 22.0514 49.958 22.0514Z" stroke="#201600" stroke-width="0.201082" stroke-miterlimit="22.93"/>
</g>
<defs>
<filter id="filter0_d" x="0.899414" y="0.899414" width="98.2011" height="98.2011" filterUnits="userSpaceOnUse" color-interpolation-filters="sRGB">
<feFlood flood-opacity="0" result="BackgroundImageFix"/>
<feColorMatrix in="SourceAlpha" type="matrix" values="0 0 0 0 0 0 0 0 0 0 0 0 0 0 0 0 0 0 127 0"/>
<feOffset dy="4"/>
<feGaussianBlur stdDeviation="2"/>
<feColorMatrix type="matrix" values="0 0 0 0 0 0 0 0 0 0 0 0 0 0 0 0 0 0 0.25 0"/>
<feBlend mode="normal" in2="BackgroundImageFix" result="effect1_dropShadow"/>
<feBlend mode="normal" in="SourceGraphic" in2="effect1_dropShadow" result="shape"/>
</filter>
</defs>
</svg>
