<svg width="98" height="98" viewBox="0 0 98 98" fill="none" xmlns="http://www.w3.org/2000/svg">
<g filter="url(#filter0_d)">
<path fill-rule="evenodd" clip-rule="evenodd" d="M48.9944 0.00373847C73.8446 0.00373847 94 20.1494 94 44.9991C94 69.8487 73.8446 90 48.9944 90C24.1442 90 4 69.8487 4 44.9953C4 20.1419 24.1442 0 48.9944 0V0.00373847ZM36.6263 22.3791C37.3303 22.3791 38.0185 22.5878 38.604 22.9787C39.1895 23.3697 39.6459 23.9254 39.9157 24.5757C40.1854 25.226 40.2564 25.9417 40.1196 26.6323C39.9828 27.3228 39.6444 27.9574 39.1471 28.4557C38.6498 28.9541 38.0159 29.2938 37.3256 29.4321C36.6353 29.5703 35.9195 29.5009 35.2686 29.2325C34.6178 28.9641 34.061 28.5088 33.6688 27.9241C33.2766 27.3395 33.0665 26.6517 33.065 25.9477C33.065 25.4801 33.1571 25.017 33.3361 24.5849C33.5151 24.1529 33.7774 23.7603 34.1081 23.4296C34.4388 23.0989 34.8314 22.8366 35.2634 22.6576C35.6955 22.4787 36.1586 22.3866 36.6263 22.3866V22.3791ZM43.8813 58.4818V37.8263C43.8838 36.965 44.2272 36.1397 44.8364 35.5308C45.4457 34.9219 46.2712 34.579 47.1325 34.577C47.9936 34.5795 48.8186 34.9226 49.4275 35.5315C50.0363 36.1403 50.3795 36.9653 50.3819 37.8263V48.6891C50.3839 47.8277 50.7268 47.0022 51.3357 46.393C51.9446 45.7838 52.7699 45.4404 53.6313 45.4379C54.4926 45.4404 55.318 45.7838 55.9269 46.393C56.5358 47.0022 56.8787 47.8277 56.8807 48.6891V49.4528H56.9703V48.6891C56.9723 47.8277 57.3152 47.0022 57.9241 46.393C58.533 45.7838 59.3583 45.4404 60.2196 45.4379C61.0812 45.4404 61.9067 45.7837 62.5159 46.3929C63.1251 47.002 63.4684 47.8276 63.4709 48.6891V49.3109C63.5994 48.5533 63.9914 47.8654 64.5777 47.3686C65.164 46.8718 65.907 46.5981 66.6754 46.5957C67.5365 46.5982 68.3615 46.9413 68.9704 47.5501C69.5792 48.159 69.9223 48.984 69.9248 49.845V65.7684C69.9248 66.1627 69.769 66.541 69.4912 66.8209C69.2135 67.1007 68.8363 67.2594 68.442 67.2624H45.3659C44.9697 67.2624 44.5897 67.105 44.3096 66.8248C44.0294 66.5446 43.872 66.1646 43.872 65.7684V58.4855L43.8813 58.4818ZM36.6263 41.6097C37.3306 41.6097 38.0191 41.8186 38.6048 42.2099C39.1904 42.6012 39.6469 43.1574 39.9164 43.8081C40.186 44.4588 40.2565 45.1748 40.1191 45.8656C39.9817 46.5564 39.6425 47.1909 39.1444 47.689C38.6464 48.187 38.0118 48.5262 37.321 48.6636C36.6302 48.801 35.9142 48.7305 35.2634 48.461C34.6127 48.1914 34.0565 47.735 33.6652 47.1493C33.2739 46.5637 33.065 45.8752 33.065 45.1709C33.065 44.2264 33.4402 43.3206 34.1081 42.6527C34.776 41.9849 35.6818 41.6097 36.6263 41.6097ZM56.9292 41.6097C57.6222 41.6096 58.3001 41.8117 58.8799 42.1911C59.4597 42.5706 59.9163 43.111 60.1935 43.746C58.9861 43.7532 57.8233 44.203 56.9255 45.0103C56.03 44.204 54.8699 43.7542 53.6649 43.746C53.9421 43.111 54.3987 42.5706 54.9785 42.1911C55.5583 41.8117 56.2362 41.6096 56.9292 41.6097ZM36.6263 31.8992C37.3307 31.8988 38.0194 32.1072 38.6053 32.4981C39.1913 32.889 39.6483 33.4447 39.9186 34.0952C40.1888 34.7457 40.2602 35.4617 40.1236 36.1527C39.9871 36.8438 39.6489 37.4788 39.1516 37.9777C38.6543 38.4765 38.0203 38.8168 37.3297 38.9555C36.639 39.0942 35.9228 39.025 35.2715 38.7568C34.6201 38.4887 34.0629 38.0334 33.6702 37.4487C33.2775 36.8639 33.0669 36.1759 33.065 35.4715C33.065 34.527 33.4402 33.6213 34.1081 32.9534C34.776 32.2856 35.6818 31.9104 36.6263 31.9104V31.8992ZM56.9292 31.8992C57.6336 31.8988 58.3223 32.1072 58.9083 32.4981C59.4943 32.889 59.9513 33.4447 60.2215 34.0952C60.4918 34.7457 60.5631 35.4617 60.4266 36.1527C60.2901 36.8438 59.9518 37.4788 59.4545 37.9777C58.9572 38.4765 58.3232 38.8168 57.6326 38.9555C56.942 39.0942 56.2258 39.025 55.5744 38.7568C54.9231 38.4887 54.3658 38.0334 53.9731 37.4487C53.5804 36.8639 53.3698 36.1759 53.368 35.4715C53.368 34.527 53.7432 33.6213 54.411 32.9534C55.0789 32.2856 55.9847 31.9104 56.9292 31.9104V31.8992ZM46.7777 31.8992C47.4107 31.8993 48.0323 32.068 48.5784 32.388C49.1246 32.708 49.5756 33.1677 49.8852 33.7199C48.8616 33.0307 47.6169 32.7505 46.3968 32.9344C45.1766 33.1183 44.0698 33.7531 43.2949 34.7134C43.4676 33.9165 43.9082 33.203 44.5434 32.6919C45.1786 32.1808 45.9699 31.9029 46.7852 31.9048L46.7777 31.8992ZM56.9292 22.3754C57.6331 22.3754 58.3212 22.5839 58.9065 22.9747C59.4919 23.3656 59.9484 23.9211 60.2183 24.5711C60.4881 25.2212 60.5593 25.9367 60.4228 26.6271C60.2863 27.3176 59.9482 27.9522 59.4513 28.4507C58.9544 28.9491 58.3209 29.2892 57.6308 29.4279C56.9407 29.5665 56.2251 29.4976 55.5741 29.2298C54.9232 28.962 54.3663 28.5073 53.9736 27.9231C53.5809 27.339 53.3702 26.6516 53.368 25.9477C53.368 25.4801 53.4601 25.017 53.6391 24.5849C53.818 24.1529 54.0803 23.7603 54.411 23.4296C54.7417 23.0989 55.1343 22.8366 55.5664 22.6576C55.9984 22.4787 56.4615 22.3866 56.9292 22.3866V22.3754ZM46.7777 22.3754C47.4816 22.3754 48.1697 22.5839 48.7551 22.9747C49.3405 23.3656 49.7969 23.9211 50.0668 24.5711C50.3367 25.2212 50.4078 25.9367 50.2713 26.6271C50.1348 27.3176 49.7968 27.9522 49.2998 28.4507C48.8029 28.9491 48.1694 29.2892 47.4793 29.4279C46.7893 29.5665 46.0736 29.4976 45.4227 29.2298C44.7717 28.962 44.2148 28.5073 43.8221 27.9231C43.4295 27.339 43.2187 26.6516 43.2165 25.9477C43.2155 25.4788 43.3071 25.0143 43.4861 24.5809C43.6651 24.1475 43.928 23.7537 44.2596 23.4221C44.5911 23.0905 44.9849 22.8277 45.4184 22.6487C45.8518 22.4697 46.3163 22.3781 46.7852 22.3791L46.7777 22.3754Z" fill="white"/>
</g>
<defs>
<filter id="filter0_d" x="0" y="0" width="98" height="98" filterUnits="userSpaceOnUse" color-interpolation-filters="sRGB">
<feFlood flood-opacity="0" result="BackgroundImageFix"/>
<feColorMatrix in="SourceAlpha" type="matrix" values="0 0 0 0 0 0 0 0 0 0 0 0 0 0 0 0 0 0 127 0"/>
<feOffset dy="4"/>
<feGaussianBlur stdDeviation="2"/>
<feColorMatrix type="matrix" values="0 0 0 0 0 0 0 0 0 0 0 0 0 0 0 0 0 0 0.25 0"/>
<feBlend mode="normal" in2="BackgroundImageFix" result="effect1_dropShadow"/>
<feBlend mode="normal" in="SourceGraphic" in2="effect1_dropShadow" result="shape"/>
</filter>
</defs>
</svg>
