<svg width="98" height="98" viewBox="0 0 98 98" fill="none" xmlns="http://www.w3.org/2000/svg">
<g filter="url(#filter0_d)">
<path fill-rule="evenodd" clip-rule="evenodd" d="M48.9944 0C73.8446 0 94 20.1465 94 44.9972C94 69.8479 73.8446 90 48.9944 90C24.1442 90 4 69.8479 4 44.9935C4 20.139 24.1442 0 48.9944 0ZM49.5546 23.2745C50.0044 23.276 50.4353 23.4553 50.7533 23.7734C51.0714 24.0914 51.2507 24.5223 51.2521 24.9721V29.7603C51.2507 30.2101 51.0714 30.641 50.7533 30.9591C50.4353 31.2771 50.0044 31.4564 49.5546 31.4579C49.1049 31.4564 48.674 31.2771 48.3559 30.9591C48.0379 30.641 47.8586 30.2101 47.8571 29.7603V24.9721C47.8586 24.5223 48.0379 24.0914 48.3559 23.7734C48.674 23.4553 49.1049 23.276 49.5546 23.2745ZM49.0317 32.7278C52.4352 32.7263 55.6998 34.0766 58.1078 36.4819C60.5158 38.8871 61.8699 42.1502 61.8723 45.5537V58.8764H36.2042V54.5812C36.2042 52.4653 36.0772 47.0981 36.2042 45.5537C36.2039 44.2432 36.4035 42.9402 36.7962 41.6899C36.9604 40.9618 37.2478 40.267 37.6459 39.6356C38.7286 37.5493 40.3636 35.8004 42.3725 34.5799C44.3813 33.3595 46.6868 32.7142 49.0373 32.7147L49.0317 32.7278ZM43.6311 56.5719H38.3817V55.9911C38.3817 52.611 37.8793 43.2922 39.7785 40.5283C41.6348 36.9595 45.1624 34.8941 49.2895 34.2741C45.4388 35.6709 43.2426 42.1175 43.6329 46.6705C43.5153 48.3325 43.6161 53.8062 43.6329 56.5682L43.6311 56.5719ZM35.1678 66.7292H64.8846V62.434C64.8826 61.9107 64.6737 61.4095 64.3036 61.0397C63.9334 60.6699 63.432 60.4615 62.9088 60.46H35.1678C34.6445 60.4615 34.1431 60.6699 33.773 61.0397C33.4028 61.4095 33.194 61.9107 33.192 62.434V66.7292H35.1678ZM66.0349 29.2617C65.7163 28.9441 65.2849 28.7658 64.8351 28.7658C64.3852 28.7658 63.9538 28.9441 63.6352 29.2617L60.2495 32.6475C59.9319 32.966 59.7536 33.3975 59.7536 33.8473C59.7536 34.2972 59.9319 34.7286 60.2495 35.0472C60.5681 35.3648 60.9995 35.5432 61.4494 35.5432C61.8992 35.5432 62.3307 35.3648 62.6492 35.0472L66.0349 31.6614C66.3525 31.3429 66.5308 30.9114 66.5308 30.4616C66.5308 30.0118 66.3525 29.5803 66.0349 29.2617ZM32.8241 29.2617C33.143 28.944 33.5748 28.7656 34.0249 28.7656C34.475 28.7656 34.9068 28.944 35.2257 29.2617L38.6114 32.6475C38.928 32.9665 39.1058 33.3978 39.1058 33.8473C39.1058 34.2969 38.928 34.7282 38.6114 35.0472C38.2925 35.3649 37.8607 35.5433 37.4106 35.5433C36.9605 35.5433 36.5287 35.3649 36.2098 35.0472L32.8241 31.6614C32.5065 31.3429 32.3282 30.9114 32.3282 30.4616C32.3282 30.0118 32.5065 29.5803 32.8241 29.2617ZM26.3142 44.3436C26.3157 43.8938 26.495 43.4629 26.813 43.1449C27.131 42.8268 27.5619 42.6475 28.0117 42.646H32.8017C33.2515 42.6475 33.6824 42.8268 34.0004 43.1449C34.3184 43.4629 34.4977 43.8938 34.4992 44.3436C34.4977 44.7933 34.3184 45.2243 34.0004 45.5423C33.6824 45.8603 33.2515 46.0396 32.8017 46.0411H28.0117C27.5619 46.0396 27.131 45.8603 26.813 45.5423C26.495 45.2243 26.3157 44.7933 26.3142 44.3436ZM63.4914 44.3436C63.4929 43.8938 63.6722 43.4629 63.9902 43.1449C64.3083 42.8268 64.7392 42.6475 65.1889 42.646H69.9771C70.4268 42.6475 70.8578 42.8268 71.1758 43.1449C71.4938 43.4629 71.6731 43.8938 71.6746 44.3436C71.6731 44.7933 71.4938 45.2243 71.1758 45.5423C70.8578 45.8603 70.4268 46.0396 69.9771 46.0411H65.1889C64.7392 46.0396 64.3083 45.8603 63.9902 45.5423C63.6722 45.2243 63.4929 44.7933 63.4914 44.3436Z" fill="white"/>
</g>
<defs>
<filter id="filter0_d" x="0" y="0" width="98" height="98" filterUnits="userSpaceOnUse" color-interpolation-filters="sRGB">
<feFlood flood-opacity="0" result="BackgroundImageFix"/>
<feColorMatrix in="SourceAlpha" type="matrix" values="0 0 0 0 0 0 0 0 0 0 0 0 0 0 0 0 0 0 127 0"/>
<feOffset dy="4"/>
<feGaussianBlur stdDeviation="2"/>
<feColorMatrix type="matrix" values="0 0 0 0 0 0 0 0 0 0 0 0 0 0 0 0 0 0 0.25 0"/>
<feBlend mode="normal" in2="BackgroundImageFix" result="effect1_dropShadow"/>
<feBlend mode="normal" in="SourceGraphic" in2="effect1_dropShadow" result="shape"/>
</filter>
</defs>
</svg>
