<svg width="98" height="98" viewBox="0 0 98 98" fill="none" xmlns="http://www.w3.org/2000/svg">
<g filter="url(#filter0_d)">
<path fill-rule="evenodd" clip-rule="evenodd" d="M49.9169 38.8329H48.3071V38.8254C47.661 38.8254 47.3958 39.1429 47.0373 39.9589L48.9272 41.5649H49.9169V38.8329ZM37.3639 53.8057C36.503 55.789 35.7691 57.4809 35.4871 58.2278H35.4797C34.6879 58.2167 32.3647 58.1849 30.3927 58.1849C27.5991 58.1849 26.6093 57.7199 26.6093 56.9356C26.6093 56.0388 27.668 54.6533 28.8867 53.0586C28.9217 53.0127 28.9568 52.9667 28.9921 52.9206C30.1126 51.4622 31.3563 49.8357 32.1668 48.1419C32.4226 47.6079 32.6915 47.014 32.9455 46.3604C33.2238 45.65 33.4613 44.9243 33.657 44.1867C33.758 43.7519 33.9525 43.3442 34.2269 42.9921C34.5013 42.6399 34.8492 42.3518 35.2462 42.1476C36.0212 41.733 36.9904 41.5872 37.9932 41.5872C38.1688 41.5872 38.3313 41.5947 38.4825 41.6078C39.2122 41.6516 39.9143 41.9022 40.5068 42.3305C40.7652 42.527 40.9738 42.7814 41.1155 43.0734C41.2573 43.3654 41.3284 43.6867 41.3229 44.0112C41.3229 44.0602 41.3203 44.1071 41.3179 44.1517C41.3156 44.1922 41.3135 44.2306 41.3135 44.267C41.2645 44.8054 39.1765 49.6234 37.4977 53.497L37.3639 53.8057ZM37.6673 55.0565C37.799 54.7542 37.9355 54.4407 38.0754 54.1195V54.1158L38.0995 54.0603C39.816 50.1017 42.0235 45.0109 42.0848 44.338C42.0961 44.2159 42.1017 44.1077 42.1017 44.013C42.1094 43.5686 42.0119 43.1288 41.8172 42.7293C41.6225 42.3297 41.336 41.982 40.9811 41.7143C40.2727 41.1944 39.4303 40.8879 38.5535 40.831C38.3567 40.8123 38.17 40.803 37.9932 40.803C36.8803 40.803 35.7915 40.9748 34.8876 41.4472C34.3896 41.6996 33.9528 42.0578 33.608 42.4969C33.2631 42.936 33.0186 43.4452 32.8913 43.9888C32.7033 44.6983 32.4751 45.3966 32.2079 46.0803C31.967 46.719 31.7074 47.2923 31.4609 47.8076C30.6878 49.423 29.4684 51.0177 28.3721 52.45C27.0089 54.2297 25.8324 55.7684 25.8324 56.9505C25.8324 58.2296 27.0314 58.9767 30.3927 58.9767C32.9268 58.9767 35.7373 59.0215 35.7373 59.0215H36.1333V58.6274C36.1333 58.5787 36.7933 57.0632 37.6673 55.0565ZM54.9105 38.1643H48.3071C45.6927 38.1643 45.1455 43.9739 48.3071 43.9739H54.9105C55.048 43.9734 55.1798 43.9185 55.2771 43.8212C55.3743 43.724 55.4292 43.5923 55.4296 43.4547V38.6816C55.4292 38.5442 55.3742 38.4127 55.2769 38.3157C55.1796 38.2188 55.0479 38.1643 54.9105 38.1643Z" fill="white"/>
<path fill-rule="evenodd" clip-rule="evenodd" d="M48.9944 0.00373847C73.8446 0.00373847 94 20.1494 94 44.9991C94 69.8488 73.8446 90 48.9944 90C24.1442 90 4 69.8488 4 44.9953C4 20.1419 24.1442 0 48.9944 0V0.00373847ZM29.9856 36.4687C28.3497 35.9869 27.2741 36.4352 28.0528 33.9645L61.7024 33.9664V38.0634H57.876C57.833 40.3174 57.7696 43.7554 57.7696 44.2391C57.7696 44.971 57.4148 45.4286 55.9395 45.4286L47.0485 45.4118C46.2753 44.4501 45.4126 44.0765 44.3276 44.3604C41.2257 45.169 44.1017 49.0775 41.5153 50.6293C39.6851 51.7273 40.5311 52.3418 40.5311 53.408C40.5311 54.4743 40.0269 54.8123 39.0203 55.9103C37.7934 57.2493 40.025 58.1233 39.7991 59.479C39.616 60.577 38.701 60.5435 38.701 60.5435H23.9705C23.993 60.6723 21.6194 59.395 23.9705 55.5444C27.0239 50.5434 30.3498 45.3968 31.7466 39.8077C32.0211 38.7096 31.3806 36.8795 29.9856 36.4687ZM36.6935 61.4584H26.7213V62.6032H36.6935V61.4584ZM59.1589 27.8413V27.3931H43.1175V28.0299H48.4286C48.4762 28.4187 48.6642 28.777 48.9571 29.0372C49.25 29.2975 49.6278 29.4419 50.0197 29.4436H57.5567C57.9813 29.4425 58.3883 29.2734 58.6886 28.9731C58.9888 28.6728 59.158 28.266 59.1589 27.8413ZM42.0512 27.3931H28.4206V32.9058H31.2778V28.958H32.3348V32.9058H33.0818V28.958H34.135V32.9058H35.1864V28.958H36.2379V32.9058H36.9699V28.958H38.0232V32.9058H75.064V27.3931H60.2233V27.8413C60.2226 28.1915 60.153 28.5381 60.0182 28.8614C59.8836 29.1845 59.6865 29.4782 59.4384 29.7252C59.1902 29.9723 58.8958 30.1681 58.572 30.3015C58.2481 30.4348 57.9012 30.5031 57.551 30.5023H50.0141C49.5313 30.5015 49.058 30.3697 48.6443 30.1211C48.2307 29.8725 47.8921 29.5164 47.6647 29.0906H42.0512V27.3931ZM75.0584 33.9664H62.6212V38.0634H75.0584V33.9664Z" fill="white"/>
</g>
<defs>
<filter id="filter0_d" x="0" y="0" width="98" height="98" filterUnits="userSpaceOnUse" color-interpolation-filters="sRGB">
<feFlood flood-opacity="0" result="BackgroundImageFix"/>
<feColorMatrix in="SourceAlpha" type="matrix" values="0 0 0 0 0 0 0 0 0 0 0 0 0 0 0 0 0 0 127 0"/>
<feOffset dy="4"/>
<feGaussianBlur stdDeviation="2"/>
<feColorMatrix type="matrix" values="0 0 0 0 0 0 0 0 0 0 0 0 0 0 0 0 0 0 0.25 0"/>
<feBlend mode="normal" in2="BackgroundImageFix" result="effect1_dropShadow"/>
<feBlend mode="normal" in="SourceGraphic" in2="effect1_dropShadow" result="shape"/>
</filter>
</defs>
</svg>
