<svg width="98" height="98" viewBox="0 0 98 98" fill="none" xmlns="http://www.w3.org/2000/svg">
<g filter="url(#filter0_d)">
<path fill-rule="evenodd" clip-rule="evenodd" d="M49.0056 0C73.8558 0 94 20.1465 94 44.9972C94 69.8479 73.8558 90 49.0056 90C24.1554 90 4 69.8554 4 45.0047C4 20.154 24.1461 0.00746586 49.0056 0.00746586V0ZM22.1684 65.9094H31.5431L29.9818 49.1953L29.8698 49.214C28.3235 49.5016 26.8053 50.6613 26.3553 52.0489L22.1684 65.9094ZM38.0604 47.8171L39.433 56.0341C39.702 57.6438 38.4694 59.1416 36.8503 59.3414C35.2182 59.3414 33.8139 58.3666 33.5431 56.7587L32.2041 48.8069L38.0604 47.8171ZM59.3288 47.7237L57.9582 55.9407C57.6893 57.5505 58.9199 59.0482 60.5408 59.248C62.1711 59.248 63.5755 58.2732 63.8462 56.6634L65.1852 48.7116L59.3288 47.7219V47.7237ZM61.5194 59.9633V60.7924C61.5174 61.4798 61.2435 62.1384 60.7575 62.6245C60.2715 63.1105 59.6128 63.3844 58.9255 63.3864H39.6907C39.0034 63.3844 38.3448 63.1105 37.8587 62.6245C37.3727 62.1384 37.0988 61.4798 37.0969 60.7924V59.9651C38.6711 59.995 39.8065 58.4506 40.1893 57.6065H57.2952C57.9189 59.2331 59.1328 60.221 61.5268 59.9633H61.5194ZM39.5544 47.5594L38.7776 47.6901L40.1763 56.0621C40.2145 56.2934 40.2289 56.5281 40.2192 56.7624H57.2317C57.1969 56.4515 57.2051 56.1373 57.256 55.8287L58.6323 47.5967L58.4586 47.5687C56.1505 51.8976 53.1439 54.8949 49.0075 55.7465C44.8692 54.8949 41.8626 51.8976 39.5544 47.5687V47.5594ZM36.2546 60.1538C34.5739 59.9241 33.1789 58.7812 32.882 57.0201L31.5244 48.9152L31.0575 48.9936L32.6261 65.9094H65.3832L66.9611 49.0011L65.8892 48.8144L64.5484 56.7792C64.4485 57.3927 64.1953 57.9711 63.8124 58.4608C63.4295 58.9504 62.9292 59.3355 62.3579 59.5804V60.7887C62.3579 61.6997 61.9965 62.5736 61.353 63.2185C60.7095 63.8633 59.8365 64.2266 58.9255 64.2286H39.6907C38.781 64.2266 37.9091 63.8644 37.2659 63.2211C36.6226 62.5778 36.2603 61.7059 36.2584 60.7962V60.1631L36.2546 60.1538ZM35.6645 30.9873C35.6645 33.0602 36.3835 33.5084 36.5646 33.9585C36.7663 34.4627 36.602 34.8548 36.9736 35.4524C37.4666 36.2555 38.447 36.3862 39.2407 35.7643C39.9989 35.1649 39.644 34.3095 39.771 33.3795L39.7841 27.9638H58.1748L58.3298 35.0939C58.468 35.8409 59.8443 36.784 60.9816 35.544C61.3924 35.0958 61.2224 34.6961 61.3868 34.091C61.5605 33.4561 62.3448 33.1573 62.3448 30.7781C62.338 30.0494 62.1588 29.3327 61.8219 28.6865C61.2617 27.7528 61.3905 28.1263 61.2449 26.6024C61.1038 25.1503 60.6928 23.7372 60.0329 22.436C59.2859 20.9196 58.4493 20.0344 57.3326 18.9065C56.8753 18.4701 56.3838 18.0711 55.8629 17.7131C55.5042 17.4607 55.13 17.2312 54.7424 17.0259C53.9285 16.5932 53.0667 16.2573 52.1747 16.0249C51.344 15.8222 50.4962 15.6972 49.6424 15.6514H48.0812C47.5155 15.682 46.9533 15.7594 46.4005 15.883C45.9512 15.9846 45.5074 16.1093 45.0709 16.2565C43.1791 16.8896 40.9625 18.3014 39.6963 19.8757C38.3985 21.4874 37.4311 22.972 36.9531 25.3736C36.8499 25.8632 36.7744 26.3583 36.7271 26.8564C36.5964 28.6044 36.5404 27.9657 36.1202 28.8116C36.018 29.0065 35.9373 29.2119 35.8793 29.4242C35.7382 29.9281 35.6672 30.449 35.6682 30.9723L35.6645 30.9873ZM49.0056 43.8468C49.9711 43.7553 50.3128 43.5891 52.8115 42.3099C58.4287 39.4414 56.9815 35.0939 57.1925 29.1347H40.8168C41.0278 35.0939 39.5805 39.4414 45.1978 42.3099C47.7021 43.5891 48.0383 43.7553 49.0056 43.8468ZM66.4663 65.9094H75.8409L71.654 52.0489C71.204 50.6613 69.6876 49.5016 68.1395 49.214L68.0275 49.1953L66.4663 65.9094ZM57.5903 46.8964C56.5968 45.6471 56.0496 43.2754 55.7228 42.4145C51.4725 44.8739 46.5555 44.8795 42.2977 42.4145C41.9653 43.2716 41.4181 45.6433 40.4302 46.8964L40.5161 47.057C42.3836 50.5623 44.998 53.7221 49.0168 54.6391C53.0243 53.7221 55.6462 50.5623 57.5156 47.057L57.6015 46.8964H57.5903Z" fill="white"/>
</g>
<defs>
<filter id="filter0_d" x="0" y="0" width="98" height="98" filterUnits="userSpaceOnUse" color-interpolation-filters="sRGB">
<feFlood flood-opacity="0" result="BackgroundImageFix"/>
<feColorMatrix in="SourceAlpha" type="matrix" values="0 0 0 0 0 0 0 0 0 0 0 0 0 0 0 0 0 0 127 0"/>
<feOffset dy="4"/>
<feGaussianBlur stdDeviation="2"/>
<feColorMatrix type="matrix" values="0 0 0 0 0 0 0 0 0 0 0 0 0 0 0 0 0 0 0.25 0"/>
<feBlend mode="normal" in2="BackgroundImageFix" result="effect1_dropShadow"/>
<feBlend mode="normal" in="SourceGraphic" in2="effect1_dropShadow" result="shape"/>
</filter>
</defs>
</svg>
