<svg width="556" height="487" viewBox="0 0 556 487" fill="none" xmlns="http://www.w3.org/2000/svg">
<path d="M0.130275 252.557C20.8443 252.557 41.5584 252.557 62.533 252.557C62.533 258.679 62.533 264.674 62.533 270.924C49.2447 270.924 36.0868 270.924 22.6682 270.924C22.6682 275.644 22.6682 280.108 22.6682 284.828C35.9565 284.828 49.1145 284.828 62.4027 284.828C62.4027 302.175 62.4027 319.267 62.4027 336.742C41.5584 336.742 20.8443 336.742 0 336.742C0 330.619 0 324.497 0 318.374C13.2883 318.374 26.7068 318.374 40.1253 318.374C40.1253 313.272 40.1253 308.425 40.1253 303.323C38.9529 303.323 38.0409 303.323 36.9987 303.323C25.7949 303.323 14.591 303.323 3.3872 303.323C2.21471 303.323 1.17249 303.195 0 303.068C0.130277 286.231 0.130275 269.394 0.130275 252.557Z" fill="black"/>
<path d="M254.902 125.411C206.438 91.4258 158.103 57.5685 109.381 23.4546C109.767 92.8366 110.153 161.706 110.538 230.831C75.7007 230.831 41.2488 230.831 6.79688 230.831V230.703C35.8496 227.24 65.0309 223.649 94.3408 220.058C94.3408 218.904 94.3408 217.878 94.3408 216.98C93.8265 149.137 93.4409 81.4225 92.9267 13.5796C92.9267 11.3993 92.9267 9.09089 93.1838 6.91068C94.0836 1.26778 99.7399 -1.55366 104.882 1.01129C106.682 1.90902 108.353 3.1915 110.024 4.34573C157.46 37.5619 204.767 70.778 252.074 103.994C253.874 105.277 255.031 105.277 256.959 103.994C304.395 70.3932 351.83 36.7924 399.266 3.31974C400.809 2.29376 402.351 1.13954 404.151 0.498298C407.622 -0.784178 411.221 0.498297 413.278 3.31974C415.206 6.26944 415.078 10.1169 412.764 12.8101C411.607 14.0925 410.193 15.1185 408.907 16.1445C357.744 52.5668 306.451 88.8609 254.902 125.411Z" fill="black"/>
<path d="M547.844 358.978C534.997 360.386 522.023 361.794 509.177 363.201C496.074 364.609 482.971 366.144 469.867 367.68C464.472 368.32 459.205 368.832 453.81 369.344C451.497 369.6 449.956 370.24 448.8 372.671C438.138 396.473 421.566 415.669 401.269 431.665C374.806 452.524 344.875 466.473 312.888 476.71C301.969 480.165 290.664 482.853 279.488 485.796C278.203 486.18 276.662 486.18 275.506 485.924C238.509 477.734 203.439 464.809 171.323 444.462C149.485 430.641 130.473 413.749 116.342 391.866C112.103 385.34 108.763 378.302 105.166 371.519C104.395 369.984 103.496 369.216 101.826 368.96C91.9343 367.936 82.1713 366.784 72.2798 365.761C60.5898 364.481 48.7713 363.201 37.0814 361.794C28.346 360.77 19.6106 359.874 10.8752 358.594C11.7745 358.594 12.5452 358.594 13.4445 358.594C47.2298 358.594 80.8867 358.594 114.672 358.594C116.599 358.594 117.37 359.106 118.14 361.026C128.032 385.98 144.86 405.431 166.057 421.427C192.134 441.135 221.552 454.187 252.768 463.529C260.09 465.705 267.541 467.496 274.992 469.416C276.276 469.8 277.818 469.8 278.974 469.544C313.402 461.482 346.159 449.325 375.962 430.001C397.03 416.309 415.271 399.8 427.989 377.918C431.201 372.543 433.77 366.656 436.211 360.898C437.11 358.978 438.009 358.466 439.936 358.466C473.978 358.466 507.892 358.466 541.934 358.466C543.861 358.466 545.66 358.466 547.587 358.466C547.715 358.722 547.715 358.85 547.844 358.978Z" fill="#EF3B39"/>
<path d="M462.353 219.548C493.461 223.266 524.051 226.984 554.641 230.575C554.641 230.703 554.641 230.703 554.641 230.831C518.607 230.831 482.444 230.831 446.021 230.831C446.41 161.849 446.799 92.8679 447.188 23.63C446.151 24.2711 445.373 24.7839 444.596 25.2968C414.784 46.0682 384.972 66.7114 355.16 87.4827C337.662 99.6635 320.293 111.844 302.924 124.025C301.758 124.794 300.073 125.307 298.647 125.307C290.481 125.435 282.315 125.307 273.242 125.307C274.538 124.41 275.186 123.769 275.834 123.256C296.055 109.023 316.275 94.663 336.625 80.559C374.214 54.4024 411.673 28.5023 449.132 2.47391C452.113 0.422418 455.224 -0.859767 458.854 0.678855C462.742 2.47391 463.909 5.93581 463.909 9.78237C463.909 16.0651 463.649 22.476 463.649 28.7587C463.261 91.3293 462.872 153.9 462.483 216.471C462.353 217.496 462.353 218.394 462.353 219.548Z" fill="#EF3B39"/>
<path d="M367.607 310.083C363.704 310.083 360.191 310.083 355.898 310.083C360.972 319.012 365.916 327.686 371.12 336.742C369.819 336.742 369.038 336.742 368.128 336.742C361.492 336.742 354.727 336.742 348.092 336.742C346.531 336.742 345.75 336.232 345.1 334.956C341.587 328.068 337.944 321.436 334.692 314.548C333.651 312.252 332.35 311.231 329.878 311.614C328.967 311.742 328.057 311.614 326.756 311.614C326.756 320.033 326.756 328.196 326.756 336.487C319.21 336.487 312.054 336.487 304.509 336.487C304.509 308.553 304.509 280.746 304.509 252.557C325.455 252.557 346.531 252.557 367.607 252.557C367.607 271.817 367.607 290.823 367.607 310.083ZM345.23 291.588C345.23 285.083 345.23 278.833 345.23 272.583C338.985 272.583 332.87 272.583 326.756 272.583C326.756 279.088 326.756 285.338 326.756 291.588C333 291.588 338.985 291.588 345.23 291.588Z" fill="black"/>
<path d="M249.417 315.248C255.873 315.248 262.064 315.248 268.388 315.248C268.388 294.393 268.388 273.539 268.388 252.557C276.028 252.557 283.406 252.557 290.915 252.557C290.915 280.576 290.915 308.595 290.915 336.742C269.705 336.742 248.495 336.742 227.022 336.742C227.022 308.851 227.022 280.832 227.022 252.685C234.399 252.685 241.777 252.685 249.417 252.685C249.417 273.411 249.417 294.266 249.417 315.248Z" fill="black"/>
<path d="M191.426 282.925C191.426 279.85 191.426 277.031 191.426 274.083C185.25 274.083 179.202 274.083 173.026 274.083C173.026 287.666 173.026 301.377 173.026 315.215C179.073 315.215 185.121 315.215 191.297 315.215C191.297 312.268 191.297 309.449 191.297 306.374C198.76 306.374 205.965 306.374 213.299 306.374C213.299 316.368 213.299 326.491 213.299 336.742C192.584 336.742 171.868 336.742 150.895 336.742C150.895 308.808 150.895 280.747 150.895 252.557C171.739 252.557 192.455 252.557 213.428 252.557C213.428 262.679 213.428 272.802 213.428 282.925C206.094 282.925 198.888 282.925 191.426 282.925Z" fill="black"/>
<path d="M77.4866 336.742C77.4866 308.68 77.4866 280.747 77.4866 252.557C96.9715 252.557 116.328 252.557 135.941 252.557C135.941 258.963 135.941 265.498 135.941 272.29C123.891 272.29 111.842 272.29 99.5353 272.29C99.5353 276.518 99.5353 280.362 99.5353 284.591C105.432 284.591 111.329 284.591 117.354 284.591C117.354 291.382 117.354 297.789 117.354 304.58C111.457 304.58 105.56 304.58 99.5353 304.58C99.5353 308.808 99.5353 312.652 99.5353 316.881C111.585 316.881 123.635 316.881 135.813 316.881C135.813 323.672 135.813 330.079 135.813 336.742C116.585 336.742 97.0997 336.742 77.4866 336.742Z" fill="black"/>
<path d="M296.353 229.474C278.637 229.474 261.051 229.474 243.335 229.474C243.335 205.443 243.335 181.667 243.335 157.509C261.051 157.509 278.637 157.509 296.353 157.509C296.353 181.539 296.353 205.443 296.353 229.474ZM277.739 175.945C272.347 175.945 267.341 175.945 262.206 175.945C262.206 187.77 262.206 199.467 262.206 211.165C267.469 211.165 272.604 211.165 277.739 211.165C277.739 199.34 277.739 187.77 277.739 175.945Z" fill="#EF3B39"/>
<path d="M364.197 208.712C353.011 208.712 342.076 208.712 330.89 208.712C330.89 215.718 330.89 222.468 330.89 229.474C324.731 229.474 318.824 229.474 312.665 229.474C312.665 205.528 312.665 181.582 312.665 157.509C329.884 157.509 346.978 157.509 364.323 157.509C364.197 174.449 364.197 191.39 364.197 208.712ZM345.721 191.39C345.721 186.167 345.721 180.945 345.721 175.85C340.693 175.85 335.917 175.85 330.89 175.85C330.89 181.073 330.89 186.167 330.89 191.39C335.917 191.39 340.819 191.39 345.721 191.39Z" fill="#EF3B39"/>
<path d="M518.616 283.088C523.175 273.379 527.474 264.054 531.772 254.601C532.424 253.195 533.205 252.557 534.768 252.557C541.672 252.684 548.575 252.557 556 252.557C552.223 259.838 548.706 266.737 545.059 273.763C540.109 283.216 535.289 292.669 530.47 302.25C529.949 303.145 529.818 304.422 529.818 305.444C529.818 314.897 529.818 324.351 529.818 333.804C529.818 334.698 529.818 335.592 529.818 336.742C522.394 336.742 514.969 336.742 507.414 336.742C507.414 335.72 507.414 334.826 507.414 333.932C507.414 324.734 507.414 315.536 507.414 306.338C507.414 304.678 506.893 302.761 506.112 301.228C498.426 286.026 490.481 270.952 482.665 255.75C482.144 254.856 481.753 253.962 481.232 252.812C482.014 252.684 482.665 252.557 483.317 252.557C489.439 252.557 495.691 252.684 501.813 252.557C503.767 252.557 504.679 253.195 505.46 254.984C509.368 263.671 513.406 272.357 517.444 280.917C517.704 281.555 518.095 282.194 518.616 283.088Z" fill="black"/>
<path d="M458.529 336.742C450.922 336.742 443.83 336.742 436.352 336.742C436.352 315.919 436.352 295.096 436.352 273.89C429.39 273.89 422.814 273.89 415.981 273.89C415.981 266.609 415.981 259.71 415.981 252.557C436.868 252.557 457.626 252.557 478.514 252.557C478.514 259.583 478.514 266.609 478.514 273.763C471.809 273.763 465.234 273.763 458.4 273.763C458.529 294.969 458.529 315.792 458.529 336.742Z" fill="black"/>
<path d="M217.135 229.474C210.452 229.474 204.036 229.474 197.487 229.474C197.487 211.546 197.487 193.746 197.487 175.691C191.338 175.691 185.457 175.691 179.443 175.691C179.443 169.588 179.443 163.612 179.443 157.509C197.888 157.509 216.466 157.509 235.179 157.509C235.179 163.358 235.179 169.333 235.179 175.564C229.298 175.564 223.417 175.564 217.268 175.564C217.135 193.746 217.135 211.546 217.135 229.474Z" fill="#EF3B39"/>
<path d="M383.354 252.557C390.69 252.557 397.898 252.557 405.105 252.557C405.105 280.704 405.105 308.595 405.105 336.742C397.769 336.742 390.69 336.742 383.354 336.742C383.354 308.723 383.354 280.704 383.354 252.557Z" fill="black"/>
<path d="M275.534 359.948C273.971 362.9 272.55 365.359 271.129 367.942C269.565 370.771 266.865 373.477 266.865 376.306C266.865 379.134 269.565 381.963 270.987 384.792C272.55 387.621 274.113 390.573 275.961 393.77C272.266 393.77 268.713 393.77 265.302 393.647C264.875 393.647 264.307 392.786 264.023 392.295C262.459 389.22 260.896 386.145 259.333 383.07C258.196 380.856 258.196 380.856 254.785 380.979C254.785 385.038 254.785 389.22 254.785 393.524C251.232 393.524 248.105 393.524 244.694 393.524C244.694 382.455 244.694 371.263 244.694 359.948C247.963 359.948 251.09 359.948 254.501 359.948C254.501 364.006 254.501 367.942 254.501 371.878C257.059 372.739 258.48 372.247 259.333 370.156C260.612 367.204 262.033 364.252 263.738 361.424C264.165 360.686 265.444 359.948 266.297 359.825C269.139 359.825 272.124 359.948 275.534 359.948Z" fill="#EF3B39"/>
<path d="M277.362 359.825C285.504 359.825 293.524 359.825 301.79 359.825C301.79 362.56 301.79 365.171 301.79 367.783C301.79 368.404 301.296 368.902 300.926 369.399C297.348 373.751 293.647 377.979 290.069 382.206C289.453 382.953 288.712 383.823 287.725 385.191C292.784 385.191 297.225 385.191 301.79 385.191C301.79 388.175 301.79 390.911 301.79 393.77C293.647 393.77 285.628 393.77 277.362 393.77C277.609 389.543 276.251 385.439 280.076 381.709C284.024 377.854 287.355 373.254 291.303 368.653C286.492 368.653 282.173 368.653 277.609 368.653C277.362 365.545 277.362 362.809 277.362 359.825Z" fill="#EF3B39"/>
</svg>
